<?xml version="1.0" standalone="no"?>
<!DOCTYPE svg PUBLIC "-//W3C//DTD SVG 20010904//EN"
 "http://www.w3.org/TR/2001/REC-SVG-20010904/DTD/svg10.dtd">
<svg version="1.0" xmlns="http://www.w3.org/2000/svg"
 width="611.000000pt" height="611.000000pt" viewBox="0 0 611.000000 611.000000"
 preserveAspectRatio="xMidYMid meet">
<metadata>
Created by potrace 1.14, written by Peter Selinger 2001-2017
</metadata>
<g transform="translate(0.000000,611.000000) scale(0.100000,-0.100000)"
fill="#000000" stroke="none">
<path d="M571 5655 c-4 -5 -29 -64 -56 -130 -26 -66 -53 -133 -60 -150 -7 -16
-29 -73 -50 -125 -21 -52 -43 -108 -50 -125 -47 -110 -195 -487 -195 -495 0
-7 257 -10 755 -10 l755 0 -20 -52 c-11 -29 -25 -62 -30 -73 -5 -11 -77 -191
-160 -400 -83 -209 -155 -389 -160 -400 -5 -11 -59 -144 -119 -295 -60 -151
-115 -288 -122 -305 -7 -16 -13 -34 -15 -40 -5 -17 -344 -858 -359 -892 -8
-17 -15 -37 -15 -45 0 -8 -4 -18 -9 -23 -4 -6 -17 -32 -27 -60 -10 -27 -24
-61 -31 -75 -7 -14 -13 -32 -13 -40 0 -9 -4 -20 -9 -25 -5 -6 -23 -48 -41 -95
-17 -47 -38 -98 -45 -115 -7 -16 -34 -84 -60 -150 -26 -66 -53 -133 -61 -150
-7 -16 -61 -151 -119 -300 -59 -148 -116 -289 -126 -312 -11 -23 -19 -48 -19
-55 0 -8 -4 -18 -9 -23 -5 -6 -18 -35 -29 -65 -11 -30 -32 -82 -45 -116 l-24
-61 1343 0 c966 0 1347 3 1353 11 5 6 86 205 181 441 95 237 178 444 185 460
7 17 18 45 25 62 12 32 14 29 264 -470 l251 -502 657 -1 657 -1 -23 46 c-13
25 -294 588 -625 1250 l-602 1204 73 81 c93 104 123 137 190 211 81 88 100
109 133 147 139 156 301 336 314 348 9 9 45 49 81 90 35 41 67 77 71 80 3 3
50 55 103 115 54 61 108 119 120 131 11 12 40 43 63 70 23 27 56 65 74 84 72
79 189 209 239 265 29 33 88 98 130 145 42 47 103 114 135 150 32 36 61 67 64
70 3 3 38 41 76 85 39 43 77 86 85 95 17 19 101 111 145 161 167 187 311 346
323 356 9 7 13 16 9 19 -6 7 -1466 9 -1470 3 -3 -4 -178 -200 -187 -209 -3 -3
-41 -45 -85 -95 -44 -49 -82 -92 -85 -95 -7 -7 -177 -196 -220 -244 -33 -38
-142 -158 -165 -182 -5 -6 -41 -46 -80 -90 -38 -43 -77 -85 -85 -94 -8 -9 -33
-36 -54 -60 -35 -41 -88 -99 -180 -200 -18 -19 -70 -78 -116 -130 -47 -52 -89
-100 -95 -106 -11 -12 -141 -156 -224 -248 -30 -34 -57 -63 -60 -66 -4 -3 -38
-41 -76 -85 -39 -44 -72 -82 -76 -85 -3 -3 -48 -52 -99 -110 -52 -58 -114
-125 -137 -150 -23 -25 -51 -56 -63 -70 -57 -65 -135 -153 -185 -206 -30 -33
-55 -61 -55 -64 0 -3 176 -356 390 -785 215 -429 390 -782 390 -786 0 -3 -333
-6 -740 -6 -527 0 -740 3 -737 11 148 372 250 625 257 641 5 11 149 371 320
800 171 429 315 789 320 800 5 11 22 54 38 95 36 94 -13 -30 385 963 l343 857
-35 1 c-20 0 -625 1 -1344 2 -863 1 -1311 -1 -1316 -8z"/>
</g>
</svg>
