<?xml version="1.0" encoding="utf-8"?>
<!-- Generator: Adobe Illustrator 26.0.1, SVG Export Plug-In . SVG Version: 6.00 Build 0)  -->
<svg version="1.1" id="Layer_1" xmlns="http://www.w3.org/2000/svg" xmlns:xlink="http://www.w3.org/1999/xlink" x="0px" y="0px"
	 viewBox="0 0 96 60" style="enable-background:new 0 0 96 60;" xml:space="preserve">
<style type="text/css">
	.st0{fill:#052D60;}
</style>
<g>
	<g>
		<path class="st0" d="M0,41.6C0,52,8,60,18.4,60c9.2,0,17.2-7.2,18-16.4h10l0,0l0,0c0.4,0,0.4,0,0.8,0l0,0l0,0c0,0,0,0,0.4,0
			c0,0,0,0,0.4,0L69.6,20l1.2,4.8C64,27.6,59.2,34,59.2,41.6c0,10,8,18.4,18.4,18.4S96,52,96,41.6c0-10-8-18.4-18.4-18.4
			c-0.8,0-2,0-2.8,0.4l-6-22.4c-0.4-0.4-1.2-1.2-2-1.2h-8c-1.2,0-2,0.8-2,2s1.2,2,2,2h6.4L68,14H33.2V6h5.2c1.2,0,2-0.8,2-2
			s-0.8-2-2-2H26.8c-1.2,0-2,0.8-2,2s0.8,2,2,2h2.4v9.2l-4.8,9.6c-2-0.8-4-1.2-6-1.2C8,23.6,0,31.6,0,41.6z M72,28.8l3.6,13.6
			c0.4,0.8,1.2,1.6,2,1.6H78c1.2-0.4,1.6-1.6,1.2-2.4l-3.2-14c0.4,0,1.2,0,1.6,0c8,0,14,6.4,14,14.4s-6,14-14,14s-14-6.4-14-14.4
			C63.6,36,67.2,30.8,72,28.8z M28,26.4l3.2-6.4l11.6,19.6h-6.4C35.6,34,32.4,29.2,28,26.4z M32.4,39.6H21.6l4.8-9.6
			C29.6,32.4,31.6,35.6,32.4,39.6z M66,18L46.8,38.4L34.8,18C34.8,18,66,18,66,18z M4,41.6c0-8,6.4-14.4,14-14.4
			c1.6,0,3.2,0.4,4.4,0.8L16,40.4c-0.4,0.8-0.4,1.2,0,2c0.4,0.4,1.2,0.8,1.6,0.8h14C31.2,50.8,25.2,56,18.4,56
			C10.4,56,4,49.6,4,41.6z"/>
	</g>
</g>
</svg>
