<?xml version="1.0" encoding="utf-8"?>
<!-- Generator: Adobe Illustrator 26.0.1, SVG Export Plug-In . SVG Version: 6.00 Build 0)  -->
<svg version="1.1" xmlns="http://www.w3.org/2000/svg" xmlns:xlink="http://www.w3.org/1999/xlink" x="0px" y="0px"
	 viewBox="0 0 854.3 540.4" style="enable-background:new 0 0 854.3 540.4;" xml:space="preserve">
<style type="text/css">
	.st0{fill:none;stroke:#FFFFFF;stroke-linecap:round;stroke-linejoin:round;}
	.st1{fill:#FFFFFF;stroke:#FF950D;stroke-linecap:round;stroke-linejoin:round;}
	.st2{fill:#052D60;}
	.st3{fill:#FFFFFF;}
</style>
<g id="Layer_1">
	<path id="AL" class="st0" d="M509.5,416l0.5,0.4l2,2.9l1.4,0.5l1.9,1.3l1.4,3.2l0.1,2.2l-0.5,2.6l0.3,2.1l-0.8,0.8l0.7,2l0.2,1.9
		l1.2,2.2l1.2,1.1l1.3,2.4l1.6-0.2l1.3,1.1v1.1l1.1,1.8l-0.8,2.6l-1.7,0.8l-1.2,3.1l-0.3,2l-0.6,0.5l-1.9,0.3l-1.7,1.3l1,2.2
		l-0.9,0.7l-0.3,1.5l-0.7,0.7l-2.7-0.9l-0.7-2.5l-1.7-2.7l-4.9-2.6l-1.2-1.1l0.4-1.5l-0.1-1.4L503,446l0.3-2.6l0.8-2.2l-0.3-2.7
		l0.1-2.1l-0.7-2.9l0.5-2.1l0.9-1.3l-0.2-2.2l-1.5-1.1l-1.6-0.2v-3.1l-0.3-0.6h1.7l-1.7-2.8l3.2-5.3l1.1,0.3l0.8,2.1L509.5,416
		L509.5,416z"/>
	<path id="AD" class="st0" d="M278.2,416.7l-2.8,1.1l-0.7-0.4v-2.1l0.9-0.7l2.6,0.6V416.7L278.2,416.7z"/>
	<path id="AM" class="st0" d="M829.4,460.3l-3.2-2.8l-2.3-1.7l-1.6-0.7l-3.5,0.4l-2.9-0.9l-1.8-0.9l0.5-0.6l-1.9-3l-0.8-1.9l1-1.4
		l0.2-2.3l-1.7-3.3l-1.7-1.2l-1.3-1.6l4.4-0.3l5.3-1.3l3.2,0.3l1.1-0.2l3.5-0.1l-0.5-0.7l2.3-0.5l1.3,1.5l1.6,1l-0.9,0.9l2.3,1h1.2
		l3.3,2.5v0.7l-1.9,1.5l-0.2,1.1l3.2,3.4l2.4,1.4l3.2,1.5l0.2,0.9l-0.9,2.5h-3l0.6,0.9l1.9,1.2l6.1,4.4l1.5-0.3l2.2,0.9l0.2,1.3
		l-1,1.4l1.9,1.4l0.8,1.5l-1.8,0.5l1.4,1.5l0.5,2.6l-2.2-0.1l-2.5,0.5l-3-4.7l0.1-1l-3.1-2.1l0.1-1.7l-0.8-1.2l-1.7,0.2l-1.9,0.9
		l-2.9-1.6l-1.2,0.2l-0.3-1.1l-1.8-1.7L829.4,460.3L829.4,460.3z"/>
	<path id="AT" class="st0" d="M462.6,322.8l-0.9,2.4l0.1,0.8l1.6,2.9l2.3,2.9l-0.6,0.7l-0.6,1.9l0.7,2l-3.9,0.3l-2.5-0.9l-1.3,1.4
		l2.6,0.7l0.5,1.1l-0.5,1.4l-2.2,1.2l0.4,1.5l-0.5,0.7l1.1,1.6l-0.3,1.8l-2.5,0.5l-1.8,1.7l-1.3,0.9l-0.1,1.9l-2.4-0.5l-1.6,0.2
		l-2.3,1.1l-2.8-0.2l-2.6,0.2l-1.9,0.7l-1,1.3l-3,1.2l-5-0.7l-5-0.9l-2.6-0.5l-4-0.3l-8.6-1.5l-1.1-0.5l-3.1-3.5V346l-4.7,1.5
		l-3.1-0.2l-3.4,0.3l-1.4,0.6l-1.2,2.2l-1.1,0.4l-2.1-0.4l-0.9-0.8l-3-0.3l-0.5-1.5l-0.8-0.3l-2,1.9l-2.3-0.4l-1.5-0.8l-0.4-1
		l-3.3-0.8l0.3-0.8l-1.1-2.5l1-3l-0.9-0.7l1.7-0.5l0.7-0.5l3.5,1.6l0.9,1.4l1.2,0.3l-0.1,1.3l1.6-0.5l1-1.6l0.2-1.9l2.8-0.1l2.7,0.4
		l1.4,1.9l3.8-0.5l1.1-0.9l3.9-1.5l5.7-0.5l0.1-1.4l2,0.3l1.5,0.8l2.5-0.5l1.1,0.5l0.2,1.1l1.2,0.9l1.7,0.4l0.3-1.5l-0.3-1.9
		l-1.7-0.3l0.6-1.3l-0.1-1.3l-2.5-2.8l0.6-1.3l3.1-1.8l2.9-0.8l1-1l0.7-2.9l2.3,0.9l1.3-0.9l0.2-2.8l2.2,1.2l0.8,1.3l3.9,0.4
		l1.4-0.7l2.5,0.4l0.1-1.1l1.3-1.6h1.2l0.3-3.2l1.2-0.2l1.6,0.8l1.4-0.4l4.8,1.7l1.5-0.1l3,1.7l3.8,0.2l1.2-0.9l5.1,1.5L462.6,322.8
		L462.6,322.8z"/>
	<path id="BG" class="st0" d="M614.4,397.5l0.2,3.7l-0.9,1.8l-2-0.6l-2.2,0.5l-1,2l-1.2,1.2v2.6l0.4,4.2l-1.6,0.7l-2.9,3.7l3,1.8
		l1.7,2.2l2.4,2.5l0.5,1.2l-1.7-0.2l-0.9,0.4h-1.8l-1.5,0.6l-3.4-2.5l-3.5,0.3l-1.5,1.1l-3.4,0.4l-1,2.2l-1.9,0.3l-0.3,1.4l-1.6-0.5
		l-1.6,1.1l0.7,1l0.9,2.7l-0.2,0.8l-2.5,1.2l-1.8-0.3l-3.2,0.4l-3.4,0.9l-1.7-1.1l-3.7-1.2l-0.9,0.6l-2.4-1.4l-1.2-1.7l-1.6,0.5
		l-4.2-0.1l-0.2,0.9l-1.9,0.2l-3,1.1l-2.6-0.2l-2.4,0.2l-1,1l-3-0.2v-4.2l0.5-1.7l-0.9-1l-1.7-3.3l-3.4-1.8l-3.3-3.2l1-0.3l1.1-1.7
		l-1.4-2.9v-3.3l1.1-0.6l1.8-0.1l1.1-1.6l1.6-1.7l0.3-1.4l-1.6-1l-1.3-1.6l-2.9-1.5l-2.4-3.9l-0.6-2.4l0.4-2.3l2.1-1l0.2-1.9
		l0.9-0.7l4.3,2.5l-1.8,2l0.9,1.8l3.7-0.6l3.9,0.3l5.3,1l3.5,0.4l2.5-0.5l9.4,1.7l4.2,0.2l2.3-0.6l1.6-0.9l1.2-1.6l3.3-2.1l3.2-1.2
		l4.4-0.9l2.9-0.4l4.5,2.3l3.2,0.4l0.9,0.6l1.7-0.5l2.5,2.6l2.2,0.7l2.6,0.5L614.4,397.5L614.4,397.5z"/>
	<path id="BA" class="st0" d="M493,380.1l2.8-0.7l1.5,0.8l-0.5,2.5l-1.6,2.7l-0.1,2.6l0.5,0.8l2.4,1.2l3.3,2.9l-0.3,0.8l-3.1-0.1
		l-0.5,0.8l3.2,3.7l-0.2,2.2l-2.5-0.3l-0.7,0.8l-3.2,0.5l1.4,2.2l-2.3,0.2l-2,1.7l-0.5,1.7l0.1,1.5l-1.7,0.2l-0.5,0.7l0.6,3l1.1,1.6
		l-0.1,0.8l-1.1,1l-1.7-0.7l-6.2-3.8l-0.6-0.9l-1.6,0.1l-1.1-0.6l0.3-1.6l-3-2.5l-1.5-1.6l-0.4-2.2l-2.4-1.1l-5-4.1l-1.7-2l-2.8-2.3
		l-2.3-2.4l-1.3-4l-3.4-3.2l-1.9-1.3l-0.1-1.4l0.3-5l1.2-0.6l1.8,0.4l1.7,1.8l1.8,1l2.7-3.2l3.2,0.3l1.5-1.2l2.7,1.6l2.5,0.1
		l2.8,0.7l1.7-0.6l1.6,1.3l2.2-1l1.8,0.3l1.8-0.2l2.6,0.7l2.2,0.2l1.1,0.8l1.3,2.2L493,380.1z"/>
	<path id="BY" class="st0" d="M579.3,209.4l1.8,1.3l1.2-0.4l1.9-0.1l3.1,2.2l1.6-0.9l1.5-0.3l3.6,1.2l0.2,2.3l1.7,1.5l2.1-1.3
		l2.7-1.1h3.4l2.7,0.9l2.4,1.8l3.5,1.4l0.4,2.5l-0.6,1.8l2.1,2.1l0.5,1.3l-1.3,2v2l4.1,2l0.5,0.5l-0.5,1.8l1.4,0.6l1.8,2.4l1.5,1.4
		l4.9,2.1l0.7,0.8l-0.4,2.8l5.3,0.5l3.2,1.3v1.1l0.7,1.1l2.8,1.4l0.6,1.7l-2.6,1l-0.3,0.9l-3,1.8l-3.5-0.2l-2.4-1.5l-2.9,0.1
		l-1.4,2.7l3.9,3.3l0.6,1l-0.2,1.5l1,1.5l0.5,3.3l1.6,1.4l1.3,1.8l-5-0.1l-1.4,0.8l-1.7-0.4l-1.1,0.5l-2.2,2.3l-0.8,1.2l-1,3.3
		l1.8,3.6l-0.8,1.4l-2.7-0.9l-0.5-1.2l-2-1.1l-7.1,0.6l-2.3,0.8l-0.6-0.5l-2.5-3l-3.8,1.6l-0.6,1.1l-1-0.3l-0.8-1.3l-5.1-1l-1.9,0.7
		l-1.9-0.5l-1.2,1.7l-0.8-1.4l-1.1-0.4l-3,0.1l-1-0.3l-1.8-2.1h-2.3l-6.1-0.9l-6.5-1.5l-7.8-0.4l-2.4,0.1l-2.3,0.5l-5.9,0.5
		l-0.8,1.4l-1.6,1.6l-1.9,1.2l-1.1-0.5l-1.9-0.3l-1.1,0.5l0.1,1.4l-1-1.6l-0.1-1.3l0.8-1.5l-0.4-1.1l0.2-2.4l-0.8-1l-1.8-1l-3.3-1.3
		v-1.2l2-2.7l0.8-0.5l4-1.7l0.6-1.6l-0.9-3.9l-1.7-3.6l-2.9-4.9l-2.1-5.1l2.9,0.4l1.6-0.3l3.7-0.3l1.6,0.9l3.3-1.3l1.8,0.1l0.8-2.6
		l2,0.2l1.4-1.2l2.1-0.5l1-0.7l1.7,2.3l2-0.2v-1l-0.9-1.1l-1.9-0.5l0.5-2l1-1.5l-0.4-2.3l1.1-3l2.6-0.6l0.8-0.6l1-2l3.6,0.1l0.4-1.1
		l1.3-1l-3.9-1l0.7-3.1v-1.8l2.6-0.6l1.2-1.5l1.1-0.3l3,0.4l3.1,0.1l0.4-1.7l2.5-2.4l1.4-0.8L579.3,209.4L579.3,209.4z"/>
	<path id="CZ" class="st0" d="M433.7,288.4l2.1-0.4l-0.1-1.9l3.3,0.8l0.3,1.1l1,1.1l4.6,1.1l2.7,1.1l0.8,0.9l3.2-0.7l1.8,1.2
		l-0.7,1.1l-1.6,1.2l1.6,0.9l2,1.8l1.5,1.9l1,0.4l3.5-2.5l-1.7-2.4h1.3l2.2,0.6l3.3,1.9l3.6-0.7v1.6L468,299l2.7,2.3l1,0.6l1.8-1
		l3.5,1.8l0.5-0.2l2.7,0.8l0.5,1.8l2.8,2.2l0.5,1.6l-2.8,0.3l-2,1.5l-0.6,0.8l-2.3,1.2l-0.7,3l-1.6,0.8l-2.1,1.9l-1.5,0.7l-1.7,0.2
		l-3.6-0.5l-1.4,1.2l-1.1,2.8l-1-1.6l-5.1-1.5l-1.2,0.9l-3.8-0.2l-3-1.7l-1.5,0.1l-4.8-1.7l-1.4,0.4l-1.6-0.8l-1.2,0.2l-0.3,3.2
		h-1.2l-1.3,1.6l-0.1,1.1l-2.5-0.4l-1.4,0.7l-3.9-0.4l-0.8-1.3l-2.2-1.2l-0.6-0.7l-2.9-2.2h-1.3l-1.3-1.6l-2.5-1.5l-2.9-2.6h-1.3
		l-2.3-2l-1.8-2.7l-1.4-1.5l1.2-1.7l-0.6-1.6l-2.3-1.3l-2.5-3.4l0.5-0.7l1.9,2l1.9-2.6l1.1-0.6l2.6-0.6l2.1,0.4l0.8-1.3l2-0.3l0.6-1
		l1.6-0.7l1.1,0.1l0.6-1.2l4.4-1l3.5-1.5l1.9-0.6l-1.5-1.5l0.8-0.6l2.2,0.4l1.5,1.5v0.9l1.4,0.6L433.7,288.4L433.7,288.4z"/>
	<path id="DK" class="st0" d="M388.3,227.9l2.1,1l2.4,0.3l0.4,1.9l-3.5,0.7l-5.1-2.1l0.1-2.5l2.3-0.2L388.3,227.9L388.3,227.9z
		 M402,226.8l-2.3,0.1l-1.9,1l-0.3-1.2l1.6-1l1.2,0.2L402,226.8z M373.2,228l-1.2,0.2l-1.7-0.5l-0.6-2.3l2.7,1.1L373.2,228
		L373.2,228z M381.2,230l-1.4-1.5l2.5-2.9l0.7-0.2L381.2,230z M431.3,226l-2.4-0.2l-2.4-1l0.1-2l0.5-0.9l4.5,2.3L431.3,226
		L431.3,226z M379.2,217.3l2.3,4.3l-0.1,2.8l-1.8,1.2h-2.1l-5.4-1.7l-1.7-2.9l-0.1-2.3l4.8-1.4l2.6,0.8L379.2,217.3z M402.5,217.5
		l-1,0.6l-0.7-0.9l0.9-0.9L402.5,217.5L402.5,217.5z M378.6,214.7h-0.9v-3l1.5,1.6L378.6,214.7z M401.2,214.7l0.1,1.5l-0.7,0.7
		l-2,0.7l-1.1,1.8l2,1.2l0.5,1.5l-1,0.7l-2.6,0.7v5.6l-2.2,0.6l-1.5-2.1l-0.1-0.9l-1.3-3.1l-2-0.4l-2.2,0.1l-1.5-1.8l0.1-2.1l-1-2
		l-1.3-0.6l0.4-1.4l3.1-0.2l1.5-1.9v-0.9l1.8-0.2l0.8,0.7l0.1,2.6l1.6,0.5l1.1-2.9l-0.9-1.1l3.9-2.2l1.1-0.1l3,0.9l-0.4,2.1
		L401.2,214.7L401.2,214.7z M369.6,228.9l-1.5-0.4l-3.1,0.7l-5.2-1.3l-2.7-0.1l-0.5-2.1l-0.8-1.4l1.1-0.3l-0.9-3.9l-3.2-1.3
		l-2.5-1.4l0.5-5.6l-1-2.3l0.1-6.9l1.3-0.1l3.1,0.8l1.5,0.9l0.6-1.9l1.6-1.6l2-0.8l1.6,1.3l0.3-4.5l-1.6-0.5l-1.3,0.4l-1.3,1.9
		l-1,2.4l-1.9,0.2l-1.5,0.7l-2.4-1.4l0.1-1.4l1.6-1.9l2-1.9h2.2l1.6-0.6l3.9,0.1l2.8-1.3l2.8-3.6l1.5-1.5l3.3-0.5l3-1.7l-0.8,2.5
		l1.2,1.7v3l-0.9,1l-1.4,2.5l0.2,5.6l2.5,1.5h4.1l1,1.1l-0.7,2.2l-2.6,1.4h-0.9l-1.4-1.1l-1.1,0.9l-1.2,5.1l-2-0.1l-1.2,0.5l1.4,1.2
		l-1.3,0.8l-3.4,3.1l1.1,3.4l-0.2,0.9l-1.5,1.3l-0.6,1.1l2.3,0.3L369.6,228.9L369.6,228.9z"/>
	<path id="EE" class="st0" d="M510.3,173.2l3.9,0.2l4,1.8l-1.8,0.7l-3.7,2.5l-0.3,0.5l-2.6-0.1l-1.4,0.2l-1,0.9l-0.9,2.8l-1.6,0.5
		l-0.3-0.9l1.6-1.8l-1.5-1.4l-1.9-0.7l0.9-1.8l-1.6-1.6l1.5-0.2l1,0.5l2-0.5l0.5-1L510.3,173.2L510.3,173.2z M518.6,174.2l-0.9,0.2
		l-2.4-1.1l1-1l1.9,0.5L518.6,174.2z M513.2,170.2l-0.8,0.7l-0.9-0.6l-0.9,1.6l-1.3,0.3l-1.9-2.5l-2.9-0.5l-1.3-0.7l4.5-0.4l1.2-1.6
		l1.3,0.1l0.4,0.9l2.1,0.3l0.9,1L513.2,170.2L513.2,170.2z M566.4,189.1l-1.9-0.2l-3.4-1l-4,1.2l-2.8-1.1l-3.5-2.7l-0.6-0.7
		l-2.3-0.5l-5.6-2.5l-1.1,0.7l-1.5-1l-8.4,2.8l1-3.4l0.1-3.6l-2.3-0.4l-0.9,1.3l-1.3,0.3l-4.1-1.3l-1.2-2.1l-1.6-1.1l-0.8-1.2v-1.8
		l-1.5-2l0.7-1.1l-0.7-2.8l3-1.2l3.3-0.2l0.9-1.3l2-1.3l2.3,0.2l3.1-1l6.3,0.1l0.4-1.7h3.2l7.6,1.2h1.8l2.8,1.2l1.4,0.3h4l6.3,0.5
		l1.2-1l1.5,1.2l-1,1.4l-1.2,0.4l-0.9,3.2l-0.8,1l-1.7-0.3l-2.5,0.2l-2,0.5l-1.3,1.1l0.1,1.1l2.6,2.3l1.4,2.8l2.6,2.2l0.8,1.3
		l2.4,2.9l1.8,2.5l-2.3,0.6l-1.2,2L566.4,189.1L566.4,189.1z"/>
	<path id="FI" class="st0" d="M501.3,147.9l2,0.2l-0.6,2.8l-2.3-1.8L501.3,147.9L501.3,147.9z M499.4,148.4l-2.1-0.6l0.9-0.8
		L499.4,148.4L499.4,148.4z M492.9,145.7l-1.5,0.7l-0.3-1.7L492.9,145.7z M518.4,82.8l-1.5,0.5l-1.3-0.3l-0.2-0.9l2-0.6L518.4,82.8z
		 M548.5,28.2l-3.7,1.3l1.6,0.8l0.8,1.2l-2,3.2l0.1,0.6l3.1,4l7.2,1.7l2.3,1.8l3.6,2.3l1.8,0.9l0.1,1.9l-3,3l-2.6,3.1l-1.2,1.7
		l0.4,1.7l2.6,2.1l2.3,2.2l3,3.5l3,2.5l3,4.2l0.4,1.4l-3.7,0.7l1.2,0.9l-0.6,1.3l0.3,1.9l-0.5,1.5l1.9,0.3l0.3,1.3l-1.7,1v0.9
		l1.4,1.7l1,0.6l3.2,0.6l0.9,1.6l-1,1.7l1.8,2.2l4.5,1.8l0.7,1.3l0.2,1.7l-2.4,3l-2,0.8l0.7,0.8l4.5,2.6l6.6,2.9l2.6,1.3l2.1,1.9
		l2.2,1.6l0.5,1l-1.6,4.5l-0.7,1.2l-2.2,2.2l-3.4,2.8l-2.3,2.3l-5.3,5.9l-1.9,1.5l-2.1,2.2l-4.9,3.3l-0.7,0.8l-2.5,1.5l-5.6,5.2
		l-3.5,1l-2.6-1.1l-1.8,0.2l-1.2,0.8l-2.5,0.2l-2,0.6l-1-0.7l-0.7,0.6l-1.9,0.2l-2-1l0.3,1.5l-3.3,1.5l-0.8-0.9l-2,1l-2.1,0.2
		l-1.1,0.8l-5.9,1.1l-1.5,1.3l-1.2-0.3l-6.7,1.1l-2.9-0.2l-2.7,2l-1.8,0.4l1.5-3l-2.4-1.1l-1.2-1.6l-0.7,0.4l-0.3,1.5l-1.5,0.8
		l-2-0.1l-0.4-2.4l0.8-2.3l-3.6-0.6l-3.8-1.4l-0.9-0.1l-0.7-1.3l-2,0.9l-2.1-0.9l-1.7-5.3v-1.3l0.9-1.6l-0.1-3.4l-0.6-2l1.1-0.6
		l-0.9-1.6l-2.2-3l-1.6-1.1l0.5-3.3l-0.6-1.6l-1.9-1.1l-1.1-2.9l0.6-2.4l2.4-2.2v-1.2l0.9-1.1l-0.5-1.3l2.7-0.5l1,0.4l2.4-0.4l1.9-1
		l-1.1-1.8l1.5-0.7l1.2-1.2l-0.1-1l2.3-0.5l2.4-1.9l2.3-1.1l2.3-1.9l1.1-0.1l0.3-1.3l2.5-1.9l0.8-1.6l2.3-1.8l2.2-3.9l3.8-1.2
		l3.8,0.3l-0.6-1.7l1-0.3l-0.6-1.3l-1-0.6v-4.6l-1.3-0.9l-4.5-1.6l-1.7-0.1l-1.2-1.2l-4.6-0.7l-1.6-2.5l-1.9-2.2l-1.8-0.6l-1.3-2.6
		v-1.3l1.5-1.3l-0.1-1.8l0.7-1.4l-0.6-0.9l-3.3-2.6l-0.8-1.6l0.1-1.1l1-0.8l-0.6-1.3l-2.8-0.4l0.3-1.9l-0.7-1.4l-0.4-2.4l1.1-1
		l-1.8-0.9l-1.9-1.5l-1.4-0.1l-1.2-1.6l-3.5-1.8l-8.3-1.7l-4.2-1.8l-4.8-2.3l-2.9-1.1l-0.4-0.9l-2.9-0.8l0.5-0.4h2.1l1.9,0.4
		l0.5-0.6l-1-1.4l1.9-1.1h3.6l7.9,5.5l1.4,1.8l6.9,0.6l0.8,0.5l1.8-0.1l3.7-0.9l1.2-1.2l1.5,0.1l3.6,1.1l3.9,0.8l2.6,0.8l1.3-0.6
		l0.5-1.7l1.6-1.3l2.1-0.3l1.5-1.4l-0.7-3.2l0.6-1.7l0.7-3.8l2.6-1.7l1.7-1.8l2.1-0.2l3.8,0.4l0.9-0.2l3.5-1.6l2.9-0.3l1.8,1.2
		l4.2,2l4.2,1.1l3.6,0.8l2.6,2.7l-0.7,1l-3.2,2.9v0.7L548.5,28.2L548.5,28.2z"/>
	<path id="GE" class="st0" d="M827.7,435.6l-2.3,0.5l0.5,0.7l-3.5,0.1l-1.1,0.2l-3.2-0.3l-5.3,1.3l-4.4,0.3l-1.3-1.2l-1.9-0.2
		l-1.1-1.7l-3.5-2.5l-1.2-0.4l-0.6-1.1l-1.4-0.3l-1.4,0.4l-0.9,1.9l-3.4-0.8l-3.6-0.1l-1.1,1l-4.3-1.3l1.9-3l0.4-1.7l-0.4-2.4
		l-1.7-2.7l-3.7-8l-1.1-1.2l-4-1.4l-1.1-1.6l-3.2-2.1l-4.1-0.9l-4.8-2.9l-2.9-1.7l0.9-2.1l0.8-0.2l4.8,0.9l1.5-0.4l5.9,2.5l3.6,0.7
		l3.1,1.7l6,0.5l2.8-0.6h1.8l2,1.1l2.4-0.2l3.2,1.2l1.5,1.6l3.5,1.4l2.8,0.8l3.2,1.5l0.2,2.4l2.5,0.4l4.3-2.1l2.1-0.7l1.8,0.2
		l1.9,1.9l0.8-2.2l4.6,1.7l2.1,1.8l2.8-0.1l2.2,1l-0.2,4.2l2.9,1.4l1.6,1.2l3.4,0.7l3.1,1.5l-1.2,2.1l-1.2,0.3v1.3l1.1,0.8l0.9,1.5
		l4.5,2.6l0.9,0.8l-0.2,2l-1.8,1.4l-4.1-2l-1.7,0.5l-3.2-0.9l-1.4-1l0.1-0.7l-4-1.4l-1.9-0.4L827.7,435.6L827.7,435.6z"/>
	<path id="GR" class="st0" d="M567.7,525.6h2.3l1.7-1l2.2,3.7l1.7-0.1l3.5-0.9l3.7,0.2l1.4,1l2.6,0.2l2.3,0.5l3.3-0.7l0.4,0.4
		l0.1,2.8l1.2,0.2l0.7-0.7l1.7-0.6h1.8l1.6-0.8l-0.4,3.5l-0.9,0.4l-4.4-0.1l-8.1,1l-5.3,0.4l-0.7-0.2l-0.7-2.2l-3.3-1.1l-6.2-1
		l-1.5-0.4l-3.1,0.2l-1.1-1l-0.4-1.8l0.2-1.9l1.4,0.3l0.4-1.4L567.7,525.6L567.7,525.6z M611.1,526.7l-1.6-2.1l1.1-0.5l1.2,2.4
		L611.1,526.7L611.1,526.7z M556.4,515.3l-1.4,0.2l-0.7-2.2l0.5-1l2.1,2.1L556.4,515.3L556.4,515.3z M619.1,519.4l-1.7-0.4l0.4-1.8
		l-0.7-1.6l2.3-2.7l3.2-1.3l0.9,0.9l-0.9,2.5l-0.9,1.3l0.4,1l-1.6,0.2L619.1,519.4L619.1,519.4z M600.1,509.1l-1.5,1.2l-0.9-0.6
		l1.9-1.2L600.1,509.1z M606.3,506.9v-0.7l1.3-1.1l2.5-1l1.2,0.6l-2.5,1.4l-1.5,0.1L606.3,506.9z M584.1,501.5l-0.9,1.3l-1.3-0.7
		l0.4-1.2l1.1-0.6L584.1,501.5z M587.7,503.1l-1.1,0.6l-1.4-2.2l1.9-2l0.9,0.7l0.1,1.8L587.7,503.1L587.7,503.1z M593.1,494.3
		l0.6-1.6l1.6-0.1v1.1L593.1,494.3L593.1,494.3z M571.4,493.6l-1-0.4l0.4-1.2l1.1,0.5L571.4,493.6L571.4,493.6z M603,489.9l2.8,0.7
		l-0.7,1l-1.6,0.9l-1.7-0.9l-1.2-1.2L603,489.9z M526.3,490l0.4,1.2l-1.1,1L524,491l-1.2-1.8l0.9-1.1l0.9,1.2L526.3,490L526.3,490z
		 M579.4,490.7l-1.4-0.1l-2.4-2.1l0.9-1.4l0.9,1.2l1.3,0.1L579.4,490.7z M522.1,481l0.3,1.8l0.9,0.3l1.3,1.6l-0.2,1.2l-2.1-0.8
		l-1,0.2l-1.1-2l-1.3,0.2l0.6-1.8l1.4,0.1L522.1,481L522.1,481z M592.9,483.5l-1.1,0.9l-1.8-1.7l1.4-1.3l-2.1-2.4l-0.1-1l2.1-0.5
		l1.3,0.9l0.6,1.2l0.4,2.6L592.9,483.5L592.9,483.5z M522.7,477.4l-1.3,0.1l-0.4-0.9l0.8-2.4l1.1,0.3l0.2,2.5L522.7,477.4
		L522.7,477.4z M557.3,472l0.9,1.7l5.5,2.5l2.8,0.3l1.7,2.6l-0.2,0.6l1.5,3.8l1.1,0.9l2.7,0.3l0.4,1.9l-0.9,0.8l-1.9-0.7l-2.1-1.6
		l-0.4-1.3l-2.2-2.9l-3.6-0.2l-1.5-0.7l-0.6-1.7l-1.5-0.9l-2-1.9l-1.5-1.1l-3-1.1l-0.6-0.7l1.9-1.3l2.1-0.5L557.3,472L557.3,472z
		 M595.2,466.2l-0.1,0.9l1.9,1.5l0.7,1l-1.2,2.1l-4-0.8l-0.8-0.8l1.6-1.3l-0.9-0.5l-1.2,1.5l-2.2-0.7l-0.9-0.9l0.7-1.4l1.5,0.1
		l1.7-0.8v-0.6l2.3-0.2L595.2,466.2z M513.9,464.6l-1.3,0.3l-1.2-0.8l-1.2-1.9L508,460l0.7-1.1l1.6-0.4l1.4,1.2l-1.1,1.2l0.8,0.7
		l0.9,2.4L513.9,464.6z M581.7,456l-0.7,1.4l-0.1,1.3l-3.8-0.7l-0.3-2.3l2.2-0.1l0.8,0.8l1-0.9L581.7,456L581.7,456z M584.1,449.1
		l-1.4,0.4l-1.7-1.3l1.4-0.5L584.1,449.1L584.1,449.1z M572.2,446.1l-1.6,0.6l-1.8-1.1l1.1-2.3l1.3,0.1l1,1.3V446.1z M588.1,444.4
		l-0.5-0.7l-2.1-1.2l-4.6-0.6l-2.3-0.9l-0.9,0.2l-2-1l-1.2,0.4l-2.5,1.7l-1.5-0.2l-1.6-1l-2.2,0.4l-1.7,1.9l-1.8,1l-1.8-0.4h-2.3
		l-0.2,1.1l2,2.1l-0.5,1l0.5,1l2.1,0.1l2.5,1.3l-0.7,0.7l-3.2-1.2l-1.2-0.1l-1.2,1.2l3.5,2.7l0.5,1.4l-0.6,0.9l-1.5-0.8l-2.5-3.2
		l-3.1-0.6l-0.4,0.6l1.2,2.4l2.9,1.7l-0.6,0.6l-3-1l-1.1-1.6l-0.4-2l-5.5-2.8l-1.4-2.8L545,448l0.4,2l-0.6,3.8l0.4,1.3l3.5,3.7
		l1.3,2.7l2.6,2.1l2.6,3.2l0.7,1.8l-1.3,1.1l-1.3-0.5l0.3-1.9l-2.2-1.2l-1.9,1.2l1.5,2.3l0.5,1.2l-0.4,1.3l-1.6,0.8l-2.6,0.1
		l2.4,1.4l3.3,1l1.6,1.1l1.5,0.1l1.7,2.1l2.6,0.6l1.7,2.1l2,0.5l1.7,0.8l1,2.1l0.3,2.9l0.6,2.1l0.1,1.7l-1.1,0.5l-1.3-1.6l-4.2-3.6
		l-1-0.4l-1,0.7l-2.9,0.5l-1.9,1.3l1.5,1.3l0.1,1.2l0.8,1.5l2,0.4l2,2.4l-3,1l-1.1,0.7l-0.8-0.5l-0.2-1.2l-4.3-2.2l-0.6,0.6l0.7,2.4
		l1.3,1.6l2.2,4.3l1.3,3.7l-0.2,2.1l1,1.5l0.1,1.5l-1.7-1.2l-2.2-2.5l-0.8-1.5l-2.2,0.1l-1.3,3.3l0.2,1.9l-1.6-1.1l-0.2-2.9
		l-2.1-2.8l-0.9-0.4l-1.3-1.9l-1.5,0.6l-0.1,2.9l-0.4,1l-2.2-1.9l-2.3-3.5l-0.2-1.8l1.4-1.7l-0.3-1.2l-1.6-2.5l-2.1-1.5l-1.2-0.5
		l-0.7-1.6l-2-1.3v-1l2-1.7l1-2.6l1.9,0.5l1.4-0.2l2-2.4l1.6,0.1l3.9,2.1l4.2,1.2l2.1,1l1.2,1.1l1.6,0.3l-0.5-1.4l0.8-0.4h2.1
		l0.2-1.6l-2-0.6l-0.8,0.2l-2.4-1.4l-2.3-0.8l-2.2-1.5l-1.2,1.3h-1.2l-3.4-0.9l-2.1,0.7l-4.2,0.7l-1.1-1.3l-2.6,1l-1-0.7l-1.9-4.2
		l-1.7-1.9l-1.2-0.5l-0.2-1.9l1.5-0.2l2.4,0.9l0.9-0.6l-0.6-1.6l-2.5-0.2l-1.8,0.5l-2.8-2.2l-1.5-1.7l-2.2-1.1l-1.7-3.4l-2.6-2.6
		l2.7,0.9l0.7-0.7l0.3-1.5l0.9-0.7l-1-2.2l1.7-1.3l1.9-0.3l0.6-0.5l0.3-2l1.2-3.1l1.7-0.8l0.8-2.6l-1.1-1.8v-1.1l4.6-0.3l0.9-0.6
		l2.3,0.6l2.4-1.3l1.7-2.5l0.8-0.3l3-0.4l3.3,0.6l2.9-1l0.2-2.1l2-0.3l3,0.2l1-1l2.4-0.2l2.6,0.2l3-1.1l1.9-0.2l0.2-0.9l4.2,0.1
		l1.6-0.5l1.2,1.7l2.4,1.4l0.9-0.6l3.7,1.2l1.7,1.1l3.4-0.9l3.2-0.4l1.8,0.3l2.5-1.2l0.2-0.8l-0.9-2.7l-0.7-1l1.6-1.1l1.6,0.5
		l1.2,0.3l2.3,1.5l0.9,3.1l-3.4,2.5l0.5,4.4l-2.5,3.2L588.1,444.4L588.1,444.4z"/>
	<path id="HR" class="st0" d="M466,409.1l2.3,0.4l-1.1,0.9L466,409.1L466,409.1z M478.9,410.6l1.6-0.1l0.6,0.9l6.2,3.8l1.7,0.7
		l1.2,1.9l-4.8-3.1l-4.4-2.5l-3.1-0.7l-4.3-2l-0.5-0.9L478.9,410.6L478.9,410.6z M472.6,407.1l-0.8,0.1l-5.6-0.1l-1.7-0.3l-0.5-1.3
		l1.8,0.2l0.5,0.6L472.6,407.1z M467.3,404.8l-2,0.1l-2.6-0.8l0.3-1.1l4.8,0.6L467.3,404.8z M446.1,388.3l-0.3,0.4l-3.3-2.7
		l-0.3-1.9l2.8,2.7L446.1,388.3z M441.2,381.8l-1.9-0.2l0.8-1.1L441.2,381.8L441.2,381.8z M437,383.3l-0.9-0.1l-1.7-4.2l0.4-1.2
		l-0.8-2l0.9-0.3l0.5,2.1l1,0.9l-0.1,1.6L437,383.3L437,383.3z M440.7,378.4l-1.5,0.3l-1-1l-1.3-0.2l-1-1l1-0.7l0.5-1.2L440.7,378.4
		L440.7,378.4z M490.2,363.7l-0.7,1.5l1.6,2.7l0.2,1.6l1.3,0.4l-0.4,2l1.2,1l3,1l0.9,1.5l-2.3,0.1l-1.7,0.4l0.7,2.6l-1,1.6l-2.2-0.2
		l-1.3-2.2l-1.1-0.8l-2.2-0.2l-2.6-0.7l-1.8,0.2l-1.8-0.3l-2.2,1l-1.6-1.3l-1.7,0.6l-2.8-0.7l-2.5-0.1l-2.7-1.6L465,375l-3.2-0.3
		l-2.7,3.2l-1.8-1l-1.7-1.8l-1.8-0.4l-1.2,0.6l-0.3,5l0.1,1.4l1.9,1.3l3.4,3.2l1.3,4l2.3,2.4l2.8,2.3l1.7,2l5,4.1l2.4,1.1l0.4,2.2
		l1.5,1.6l3,2.5l-0.3,1.6l-3.5-2.8l-2.6-1.5l-3.1-2.8l-3.8-1.1l-2.7-1.2l-3.3,0.6L457,401l-0.7-2.2l-5.8-3.9l-4.3-4l-0.8-1.3
		l3.1-1.2l-1.4-0.8l-3.9-3.4l-1.2-1.6l-0.1-4.1l-0.8-1.7l-2.9-2.2l-1.1-1.1l-2.1-0.7l-1.4,0.9l-0.3,1.9l-3,5H429l-3.1-4.2l-0.5-1.9
		l-1.3-3.9l0.7-0.5l0.5,0.6l3.3,0.8l1.4-1.3l1.1,0.5l3.6-0.1l0.6-0.3l1.2-2.2l2.6,2.1l1.5,0.7l1.3-0.5l2,0.7l1.6,0.2l1.2-0.4
		l-0.8-2.3l0.7-0.7l-1-1.1l2.1-1l2.1-0.6l0.4-1.1l-0.2-2.2l-0.9-0.9l0.4-1.4l4.4-1.7l0.7-1h2v-1.7l0.9-0.8l2.5,0.6l2.9,1.2l1.7,1.2
		l0.9,1.3l2.7,1.8l2.2,2.2l1.3,0.7l2.5,0.6l1.3,1.3l3.3,0.9l4.9,0.2l2.5-0.9l1.1-1.4L490.2,363.7L490.2,363.7z"/>
	<path id="HU" class="st0" d="M525.8,325.7h1.5l1.4,2.3l2.2,0.8l0.9,1.1l2.3,0.4l0.9,0.7l0.7,1.7l-2.2,2.3l-4.6,1.1l-1.9,2.4l-1.2,1
		l0.1,1.7l-1.4,1.4l-0.7,2.5l-1.4,1.5v1.2l-1.6,2.7l0.2,1.3l-2.1,1.5l-1.5,4.7l-1.3,0.9l-2.6-0.3l-2.5,2l-1.4-0.5l-3.2,0.9l-1-0.5
		l-2.8-0.3l-1.1,0.2l-2.9-0.4l-1,0.3l-1.5,1.6l-2.2,1l-1.6-0.5l-2.1,1.3l-2.9,0.4l-1.1,1.4l-2.5,0.9l-4.9-0.2l-3.3-0.9l-1.3-1.3
		l-2.5-0.6l-1.3-0.7l-2.2-2.2l-2.7-1.8l-0.9-1.3l-1.7-1.2L460,355l-1.9-2.2l-1.4-3.3l-2.4-0.1l1.8-1.7l2.5-0.5l0.3-1.8l-1.1-1.6
		l0.5-0.7l-0.4-1.5l2.2-1.2l0.5-1.4l-0.5-1.1l-2.6-0.7l1.3-1.4l2.5,0.9l3.9-0.3l-0.7-2l0.6-1.9l0.6-0.7l2.1,0.3l4.2,2.7l1.6,0.7
		l4.7,0.1l7-0.4l0.6-1l-0.5-1.3l0.4-1l1.4-0.7l4.3-0.4l2.4-0.6l1-1.5l0.7-0.2l3.5,1.4l5-2.5l1.6-3.5l1.8-0.4l2.7,0.1l2.5,0.6
		l4.6-0.7l1.4,0.9l2.2,2.2l0.6,0.2L525.8,325.7L525.8,325.7z"/>
	<path id="IE" class="st0" d="M184.1,239.9l0.7,1.1l-2.2,0.4l1.5,5.2l0.6,0.9v4.1l0.9,3.2l0.1,2.5l-1.3,1.8l-0.9,2.1l-0.2,1.8
		l-1.6,2.1l-1.5,0.9l1.6,1.5l-2.8,0.8l-2.6-0.3l-1.3,0.8l-3.9,0.2l-3.7,0.7l-1.7,1.8l-2.5,0.7l-1,1L160,274l-1.7-1.2l-1,0.2l0.2,2.1
		l-2.9,1.3l-1.8,0.3l-1,0.7l-5.8,1.4l-1.9-0.5l-3.3,0.8l-1.2-0.1l1.6-1.8l1.6-1.3l-3.8,0.6l-1.4,0.5l-0.6-0.6l3.2-1.9l-3.3,0.1
		l-3-0.4l-0.4-1l2.9-2.3l2.4-0.9l-0.1-0.9l-5.1,0.1l0.5-1.1l1.7-1l1.8-0.1l1.5,0.6l1.1-0.8l-0.6-1.7l3.9-2.3l3-0.3l3.3-0.7l3.3-0.8
		l-2.4-1.2l-2.3,1.8l-2.6,0.3l-1.9-0.5h-2.1l2.7-2l1.6-1.7l-0.8-0.7l2-2.3l3.6-1l-1.6-1.3l-3.9,0.2l-1.4-1.3l-2.6,0.1l0.4-1.2
		l-3.5-0.2l0.5-1l-0.6-1.1l2.8-0.6l-0.2-2l1.9-0.8l2-0.4l0.1-1.1l-2-0.2l-2,0.4l0.8-2.1l-0.8-1l-0.4-1.7l-0.9-1l2.8-0.2l1.2-0.5
		l4.7,0.1l1.9,1.3l1.7-1.2l4.8,0.9l0.6-2.6l3.8-1.5l1.2-2l-3.7,0.4l-3.6-1l0.7-0.8l2.1-0.7l1.9-1.6l-0.3-1.1l1.7-2.7l3.1-0.8h2.4
		l1.6-0.9l1.2,2l-1,1l0.6,0.9l1.2-0.8l-0.5-2.1l0.9-1.3l1.9-0.3l0.6-0.8l3.2,1.7l-2.5,1.5l-0.5,0.7l-1.9,0.9l-1,2.3l-1.2,1.6
		l-2.2,0.8l-1.6-0.1l-0.2,0.8l1,1.4l-2.9,0.9l-1,1.4l2.7,2l0.2,1l2.1,0.4l0.8,0.7l2.9,0.3l2.4-1.8l-0.5-0.9l1.9-1.6l1.3,0.5l1.8,2.7
		l1.4,0.5l-0.1,1.5h2.9L184.1,239.9L184.1,239.9z"/>
	<path id="IS" class="st0" d="M95.1,65.8l1.2,0.1l2.8-0.8l2.2-1.1l0.5,1.1l-2.5,2.4l2.2,0.9l2,0.3l-0.1,1.7l-1.7,1.6l0.8,0.3
		l3.5-0.5l1,2.3l1.5-0.2l2.4,0.3l1.4,1.2l1.2-0.3L114,76l-0.7,1.2l-1.5,0.6l2.1,2.9v1.1l-1,0.7h-1.3l-1,2.1l-1.2,1.1l-2,1l-2.6-0.5
		l-1.1,1.5l0.2,1.4l-1.3,1.3l-5.3,2.1h-2.5L92.2,93L86,95l-4.7,2.8l-2,0.7l-3.1,0.3l-1.8,0.5l-5.9,0.8l-2,0.5l-1.2,1.1l-0.5,1.4
		l-4,1.1l-3.8,0.7l-6.4-0.5l-5.4-1.3l-4.5-0.3l-3.8-2.5l-2.9-1l-3.6-1.8l-2.3,1.1l-12.4,0.3l-0.8-0.5l-0.2-2.1l1.1-0.8l1.3,1.2
		l5-1.1l2.7-1.9l2.5-2.7l-3.5,1.2l-0.2-1.9l-0.9-1.1L21,88.4l-0.3-0.8l1.1-0.9l-2.3-1.2l-2.6,0.1l-6.6-0.5l-3.8,1l-2,0.1l-0.9-1
		v-1.1l1.5-0.3l1.8,0.1l4.1-0.6l1.4-0.6l0.8,0.5l3.6-1.1l1,0.2l4-0.2l4.4-0.1l1.1-0.8l0.4-1.1L24.9,81l-3.7-0.5l-0.6-0.9l3.6-1.6
		l2.7-0.8l-0.8-1.3l-3.2,0.2l-0.7-0.8l-2.6-0.4l-1.8,0.3l-0.9-0.5l-2.4,0.6l-5.2,0.9L6,77.1L2.9,76l-2.4-0.2l1.4-1.4l2-0.1l1.7,0.8
		l0.1-3.2l1.2,0.3l2.8,1.1L9,70.5l2.2,0.1L9,69l0.5-1l1.6-0.3l0.8-1h2.4l2.3,1.1l0.2,1.4h2.1l1.1-0.8l0.9,0.6l0.5,1.2h1.2L23,68
		l-3.6-1.1l-0.3-1.4l3.7-0.1l-1.7-1.1l-3,0.2l-1.4-0.4l2.6-1.2h3.4l1.4,0.2l2.3,1.7l2,0.6l3.1,2.3l2.2,0.9v1.2l0.7,0.8L32.1,74
		l0.9,0.7l-0.8,1.6l1.9,0.6l1,1.7l0.9-1.8l1.5-1.9l2.3-1.3l0.9,0.1l0.9,1l0.9,0.1l1.4-2l0.7-4.3l1.7-0.9l1.8,0.7l1.3,1.6L52,72
		l1.8-0.5l0.1-2.3l1-1.3l2-0.3l2.2-0.8l2.3-0.2l1.7,1.4l1.2,1.4l1.7,1.1l0.7,1.8l0.9-0.3l-0.2-1.7L66,67.7l0.3-0.9l4.1,0.2l3,2.3
		l1.3-0.3l3.6-2.8l2.3,0.8l1.8,0.1l2.8-0.8l0.8-1.2l-0.9-2.3l0.6-0.4l2.6-0.6l2.7,0.1l2.6,2.1l-0.1,1L95.1,65.8L95.1,65.8z"/>
	<path id="IT" class="st0" d="M457.4,483.5l-1.2,2.5l-2.8,4.3l-1.5,5.1l0.3,2l1.6,1.4l-0.7,0.5l1.6,1.8l0.1,1.3l-1.8,1.9l-0.4,1.7
		l0.1,1.5l-2.9-0.6l-1.4,0.3l-3.7-1.4l-1.9-2.8l-3-2h-3l-1.4-0.5l-2.9-1.9l-3-1.4l-2.6-2.1l-1.7-0.4l-1.5-1h-2.9l-2.3-1.6l-1.3-2.3
		l1.3-3.7l1.4-0.8l0.9-1.2l2.3,2.3l1.8-0.8l1.4-1.6l2.4,0.1l0.5,0.9l1.4,0.3l2.5,1.6l1.4,0.4l3.4-1l3,0.4l2.8-0.5l1.7-0.6l1.2-1
		l1.4-0.3l3.5,0.3l2-1.2l0.8,0.2l2-1.2L457.4,483.5L457.4,483.5z M379.1,442l0.7,0.9l1.8,5l-0.6,1.6l-1.3,2l0.8,2.8l-0.6,11.5
		l-0.6,2.9l-0.9,0.4l-2.9-1.2l-1.5,0.3l-1.2-0.6l-0.3,3l-1.8,2.1l-3-0.2l-0.7-0.6l-2.4-3.8l-0.4-4.3l0.6-1.3V460l1.1-0.1v-1.7
		l-1.8-1.2v-1.9l0.7-1.4l-0.1-2.6l-0.8-0.9l-0.8-2.3l-2.2-2.4l0.1-3.4l3.4,0.6l1.3-0.3l3.1-1.5l2.1-2.5l1.4-0.5l1.5-1.8l0.7,0.9
		l2.2,0.8l1.2,1.5l0.9,0.5l-0.7,1.4L379.1,442L379.1,442z M387.4,411.2l0.3,1.4l-2.5,0.5l-1.1-1.1l2.9-0.2L387.4,411.2L387.4,411.2z
		 M425.3,354.6l-0.2,0.9l-3.3,2.3l0.7,1.4l2.3,0.7l-1.6,2.1l0.3,1l1.3,0.2l-0.4,2l1.9,1.1l1.5,1.3l0.2,1.3l-1.5,0.1l0.7-0.6l-2-2.2
		l-2,0.9l-3.2-0.9l-2.1,2l-1.5,0.4l-1.7,1.1l-3.2,1.2l-1.8-0.4l-1,0.7l-0.4,3.1l0.8,0.6l1.5,2.6l1.7,1.1l-0.7,1.9l-0.9,0.7l-1.3-0.5
		l-0.3,1.7l0.9,4.5l1.4,3.2l1.2,1.3l2.7,2.2l2.7,1.1l5.1,3.7l2.8,1.1l0.7,0.7l1.8,2.8l1.6,3.2l1.8,5.1l1.3,2.5l2.3,2.9l4.8,4.1
		l4.3,2.9l4,1.9l3,0.3l7-0.4l2.6,0.7l0.4,1.2l-0.4,0.9l-2.9,2.1v1.7l1.5,1.2l7.1,3.2l7.2,2.6l2.2,1.4l2.7,2.1l6.4,2.9l1.1,1.4l4,3
		l1.8,2.4l0.5,1.8l-1.5,4.4l-1.6-0.5l-1.9-1.3l-3.1-5.4l-5-0.5l-2.9-1.3l-0.7-1.4l-2.3-0.4l-1.3,0.9l-1.4,2l-1.5,3l-1.5,4.3v1.7
		l1.1,1.7l2.9,1l2.4,1.5l1.6,1.6l0.3,3.8l0.9,2.1l-0.9,1.3l-1.9-0.3l-2.5,0.7l-1.7,1.4l-0.7,1.4l0.5,3.4l-0.3,1.4l-3.3,2.5l-1.6,2.5
		l-1,2.3h-4.3l-1.1-1.5l-0.1-2.2l0.6-1.3l1.6-0.7l0.9-2.8l-0.5-2l1.1-1.6l2.8-0.7v-2.9l-1.4-1.3l-1.4-5.1l-2.4-4.3l-1.4-3.8
		l-1.1-1.8l-1.4-1l-3.7-0.3l-4.6-2.6l-0.3-1.1l0.6-1.1l-1.1-2.8l-2-1.7l-2.6,0.6l-1.2-0.1l-0.1-1.5l-2-1.3l-2.7-0.2l-0.7-0.7l-2.6-4
		l-1.7-1.7l-2.3,0.1l-3.9-0.9l-2,0.7l-3.2-2.6l-2.8-0.9l-5.7-5.3l-1.8-2l-3.5-2.2l-2.3-3.2l-1.8-1.2l-4-1.4l-0.3-1.3l-3.1-3.1
		l-1.7-1l-1.3-2.1l-2.5-0.5l0.1-2.7l-1.2-3.5l-1.7-2.2l-1.2-5.3l-0.8-1.5l-1.8-1.1l-4-1.2l-5.7-3.4l-1.1-0.1l-3.4-1.3l-2.1-0.2
		l-2.6,1.2l-3.1,3.2l-2.5,3.4l-0.9,0.6l-3.4,1.2l-3,0.5l-0.2-1.5l2.1-2.6l-0.3-2l-3.3,0.6l-5.1-2.4l-0.9-0.9l-0.1-1.4l-0.7-1.3
		l1.4-2.5l0.8-0.7l-0.5-1.7l-3.2-1.4l-1.5-3.1l0.8-0.4l1.9,0.2l1.7-1.3l1.2-0.3l0.8-2.5l-1.8-1.6l-1.7-2.6l-0.9-0.6l-0.1-1.6
		l2.6-1.7l1.4,0.7l2.4-0.5l2.6-1l3.1,0.8l2.4-1.4l1.6-2.2l-0.6-1.5l3.4-2.9l1,0.6l0.2,2.5l2.4,2l2.2,0.6l-0.4,1.2l1.3,1.2l0.9,1.4
		l1.2-0.7l-0.7-1.7l0.2-1l2.2-2.6l0.5-1.1v-2.9l2-0.1l0.8,2.1l2,0.8l2.9-1.1l0.7,0.1l1.4,1.9l1.2-0.3l-1.5-3.5l0.6-1.8l1.3-0.3
		l1,0.9l1.9,0.2l-0.5-1.8l0.5-3.1l3,0.3l0.9,0.8l2.1,0.4l1.1-0.4l1.2-2.2l1.4-0.6l3.4-0.3l3.1,0.2l4.7-1.5v2.3l3.1,3.5l1.1,0.5
		l8.6,1.5l4,0.3L425.3,354.6L425.3,354.6z"/>
	<path id="LI" class="st0" d="M374.2,346.4l-1.2-0.1l-0.1-1.7l0.5-1.5l1.1,2.5L374.2,346.4L374.2,346.4z"/>
	<path id="LT" class="st0" d="M562.7,216.4v1.8l-0.7,3.1l3.9,1l-1.3,1l-0.4,1.1l-3.6-0.1l-1,2l-0.8,0.6l-2.6,0.6l-1.1,3l0.4,2.3
		l-1,1.5l-0.5,2l1.9,0.5l0.9,1.1v1l-2,0.2l-1.7-2.3l-1,0.7L550,238l-1.4,1.2l-2-0.2l-0.8,2.6l-1.8-0.1l-3.3,1.3l-1.6-0.9l-3.7,0.3
		l-1.6,0.3l-2.9-0.4l-0.8-3l-1.1-0.9l-4.5-2.2l-2.3-0.7l-0.6,0.6l-1.3-2v-2.1l1-3.1l-1.3-1.3l-1.4-0.6l-0.9-1.3l-5.7-0.1l-2.4-0.6
		l-3.9-1.4l-2-1.2l-1.8,0.2l-0.6-1.2l0.2-1.6l-1.1-2.4l-1.6-2.9l-0.7-3.8l2.8-1.7l3.6-1.9l4.7-1.4l5.9,0.5l4.3-0.1l1,0.9l1.6-0.7
		l4.9,0.5l2.3,0.1l3.7,0.9l4.6-0.4l1.7-1.3l2.3-0.2l2.4,2.9l6.1,1l0.9,0.4l5.4,3.1l2.6,2.1l1.5,0.7L562.7,216.4L562.7,216.4z"/>
	<path id="LU" class="st0" d="M330.2,299.6l0.3,2.2l1.5,1.6l2.8,1.1v1.4l-0.9,0.9l-0.6,3l-1.3-0.7l-2,0.6h-1.4l-2.1-1.2l1.1-1.7
		l-2-2.4l0.2-1.7l1.4-2.5l1.3-1.3L330.2,299.6z"/>
	<path id="LV" class="st0" d="M566.4,189.1l1.9,0.3l0.5,1.1l3.2,1.7l0.7,2.2l-0.8,1.6l-0.3,3.1l1.8-0.3l1,0.6l0.3,1.2l1.7,2.1
		l1.3,0.8l1.9,4.2l-0.3,1.7l-1.3,0.2l-1.4,0.8l-2.5,2.4l-0.4,1.7l-3.1-0.1l-3-0.4l-1.1,0.3l-1.2,1.5l-2.6,0.6l-2.3-0.5l-1.5-0.7
		l-2.6-2.1l-5.4-3.1l-0.9-0.4l-6.1-1l-2.4-2.9l-2.3,0.2l-1.7,1.3l-4.6,0.4l-3.7-0.9l-2.3-0.1l-4.9-0.5l-1.6,0.7l-1-0.9l-4.3,0.1
		l-5.9-0.5l-4.7,1.4l-3.6,1.9l-2.8,1.7l-0.8-2.8l-0.6-5.5l0.1-2.8l1.9-1.6l0.8-1.2l0.6-4.5l2.5-3.6l2.4-0.4l3.1-1l3.5-0.9l1.4,1.9
		l4.9,3l1.2,1l2.3,3.4l4.4,1.8l3.1-0.6l3.6-2.4l1-1.1v-1.1l-1.2-4.7l-1.1-2l0.1-1.3l8.4-2.8l1.5,1l1.1-0.7l5.6,2.5l2.3,0.5l0.6,0.7
		l3.5,2.7l2.8,1.1l4-1.2l3.4,1L566.4,189.1L566.4,189.1z"/>
	<path id="MD" class="st0" d="M606.2,371.1l-2-2.3l0.9-0.7l-1.4-5l-0.1-2.6l0.9-4.8l-0.5-2.9l-1.4-2.3l-1.4-2.9l-3-2.1l-1.3-1.7
		l-2.1-1.8l-2.5-3.2l-1.5-1.3l-3-4.9l-2.5-3l-2.5-1.6h-2.1l0.2-0.6l2.3-1.4l0.7,0.2l4,0.1l1.2-1l0.8,0.3l1.6-1l3.5,1l3.6,2.4
		l2.5,0.3l0.6,1.2l5.6,0.6l1.4,1.9l1.4,1l1.4-0.7l1.4,1.4l0.6,2.3l-0.6,3.1l0.6,1.2l2.3,1.2l2.9,2v2.4l0.9,1.9l2,1.3l2.1,0.8l1,1.6
		l0.2,2.9l2.9,1.7l-0.6,0.7l-2.9,0.4l-1.2-1.3l-1.6,0.6l-2.1-0.8l-1.9-0.2l-2.1-1l-2.5,1.6l0.5,2.1l1,1.7l-0.4,2l-2.3,1.7v1.3
		l-2.5,2.9l0.5,1.4l-0.4,1l-2,0.2L606.2,371.1L606.2,371.1z"/>
	<path id="MK" class="st0" d="M538.6,419.7l3.3,3.2l3.4,1.8l1.7,3.3l0.9,1l-0.5,1.7v4.2l-2,0.3l-0.2,2.1l-2.9,1l-3.3-0.6l-3,0.4
		l-0.8,0.3l-1.7,2.5l-2.4,1.3l-2.3-0.6l-0.9,0.6l-4.6,0.3l-1.3-1.1l-1.6,0.2l-1.3-2.4l-1.2-1.1l-1.2-2.2l-0.2-1.9l-0.7-2l0.8-0.8
		l-0.3-2.1l0.5-2.6l1.7,0.3l0.5-0.8l0.2-2.6l3.4-1.5l1-0.1l1.6,1.2l1.5-1.9l2.1-0.4l2.2-0.3l2-0.9l1.9,0.3l2.3-0.8L538.6,419.7
		L538.6,419.7z"/>
	<path id="ME" class="st0" d="M497.2,400.8l0.4,1.2l2.6,1.7l1.9,2l3,1.6l2.1,0.5l5.3,2.9l0.1,1l-1.6,0.4l-0.2,0.7l-2,0.4l0.9,1.5
		l-0.2,1.3l-3.4,1.2l-0.8-2.1l-1.1-0.3l-3.2,5.3l-0.8,0.3l-2.5-0.2l1.6,1.9l1.7,0.8l0.3,0.6v3.1l-2.1-1.2l-0.9-1.8l-3.1-2.9l-3.5-2
		l0.1-1l-1.6,0.1l-1.2-1.9l1.1-1l0.1-0.8l-1.1-1.6l-0.6-3l0.5-0.7l1.7-0.2l-0.1-1.5l0.5-1.7l2-1.7l2.3-0.2l-1.4-2.2L497.2,400.8
		L497.2,400.8z"/>
	<path id="NO" class="st0" d="M312.8,148.8l0.1,1.7l-1-0.1l-0.7-1.1l-0.2-2l0.7-0.5L312.8,148.8z M311,137.7h-1.8l0.3-1.3l0.9-0.3
		L311,137.7z M343.5,105.8l-2.3-0.2l-1-0.8l2.8-0.8l0.7,0.5L343.5,105.8z M347.1,101.2l-0.3-0.9l2.7-0.6l0.9,1L347.1,101.2
		L347.1,101.2z M375.1,84.6l-4.2,0.3l-0.3-1.1l2.1-0.8h1.2L375.1,84.6z M381.9,74.1l-2,0.3l0.1-1.1l1.8-0.3L381.9,74.1L381.9,74.1z
		 M386,68.4l-0.1-1.1l1-1.2l1,0.4l-0.3,1.5L386,68.4L386,68.4z M389.1,43.5l-1.5,0.7l1.1-2.6l1.1-0.7l0.4,1.5L389.1,43.5z
		 M397.6,38.3l2.3,0.2l-0.5,0.8l-1.4,0.3l-1.1,0.8l-1.9,0.2l-1.9,1l-1.6,0.3l-0.4-1.2l0.9-1h1.3l1-1.2L397.6,38.3L397.6,38.3z
		 M410,29.3l2.2,2.1l-0.3,1.5l-1.2,0.7l-3.3,0.1l-1.6-0.9l-2.2,0.6l-1.6-1.1l1.6-1.4l2.6,0.4l0.5-1.7l1.7,0.3l0.4-1.5L410,29.3
		L410,29.3z M416.3,34.3l1.3-1.1l1.5-0.4l0.6-2.2l1.8-0.5l1.6,1l0.9,1.2l-0.2,1.1l-3.1,1.2l-2.5,2l-1.6-0.2l-0.7,0.7l-2.4,0.6
		l-1.7-0.9l-0.9,0.9l-1.4,0.4l-1.2-0.4l-2.9,1.5l-2.8,0.3l-1-1.1l3.1-1.9l5.1-0.6l2.9-2.3l0.4-2.5l0.6-0.9l-1.3-0.6l0.2-1.7l2.4-1.7
		l1.3-1.4l1.5-0.3l0.9,1.1l-1.1,1.4l-1.6,1.2l1.1,1.5l0.6,2.4L416.3,34.3L416.3,34.3z M431.8,20.6l1.4,0.8l1.5-0.3l2.3,0.7l1,1.5
		l-1.2,0.9l0.4,1.7l-3.8,0.5l-0.9-0.5l-1.5,0.9l-1.4,1.4l-2.2-0.6l0.2-1.6l-0.3-2.3l0.7-0.5l2.9,0.3l-0.4-2L431.8,20.6L431.8,20.6z
		 M555.8,18l-1.8,0.4l0.2-1.8L555.8,18L555.8,18z M463.4,14.2l-1.3,0.4l-1.8-0.3l-0.7-1l2.2-1l1.7,0.3L463.4,14.2L463.4,14.2z
		 M448.3,14.5l1,0.7l1.5-0.5l1.1,1l-1.4,0.8l-0.8,1.2l-2,0.1l-2.9,2.3l-0.1,0.8l-5,0.5l-1.5-0.3l1.7-2.7h1.7l1.7-0.8l-0.3-0.8l2.5-2
		l0.6-1.7l1.4-1C447.5,12.1,448.3,14.5,448.3,14.5z M453.1,12.5l1.4,0.2l1.3,1.6h-2.3l-2-1.8C451.5,12.5,453.1,12.5,453.1,12.5z
		 M490.4,8.2l0.5,1.1l-3.3,2.1l-1.6,0.1l-2.1-1.2l0.1-0.8l1.9-0.9l0.9,0.1l2.7-1.4L490.4,8.2L490.4,8.2z M494.3,7.9l-1.8,0.5
		l-1.7-0.9l-0.2-1.6l0.8-0.3l3.2,1.2C494.6,6.8,494.3,7.9,494.3,7.9z M487.9,4.7l-0.4,0.8l-2.7,2.1l-2.2,0.7L480.8,8L480,8.6h-2
		L476,8l-2-1.2l3.5-0.1l0.6-0.5h1.5l2.8-0.4l1.1,0.3l2.1-1.4H487.9L487.9,4.7z M548.5,28.2l-1.7-1.3v-0.7l3.2-2.9l0.7-1l-2.6-2.7
		l-3.6-0.8l-4.2-1.1l-4.2-2l-1.8-1.2l-2.9,0.3l-3.5,1.6l-0.9,0.2l-3.8-0.4l-2.1,0.2l-1.7,1.8l-2.6,1.7l-0.7,3.8l-0.6,1.7l0.7,3.2
		l-1.5,1.4l-2.1,0.3l-1.6,1.3l-0.5,1.7l-1.3,0.6l-2.6-0.8l-3.9-0.8l-3.6-1.1l-1.5-0.1l-1.2,1.2l-3.7,0.9l-1.8,0.1l-0.8-0.5l-6.9-0.6
		l-1.4-1.8l-7.9-5.5h-3.6l-1.9,1.1l1,1.4l-0.5,0.6l-1.9-0.4h-2.1l-0.5,0.4l-5.1,0.2l2.6,1.6l0.1,2l-1.4,1.9l-1.6,0.9l2.9,0.9
		l-2.5,1.6l-1-0.1l-8.6-1.7l-2.9-0.1l-4.1-0.9l-2.1,0.5v0.8l0.8,3.6l-2.1,3.1l-6.3-1.8l-1.5,0.9l-3.7,1.9l-1.5,3.5l-1.1,1.1
		l-2.7,0.6l-0.5,1.1l2.7,2.3l1,1.3l-0.2,1.4l-1.5,1l-3.3,2.9l-3,2.9l-1.3,0.9l1,2.5l-3.3,1.5l-2.4,0.5l-3.8,0.4l1.4,3.9l-0.6,2.7
		l-0.1,4.7l-3.3,5l-4.4,5l4.7,1.6l1.1,2.9l0.1,1.2l-1.7,2.2l-7.1-0.9l-3.3,0.4l-3.3,1.5l-3.5,3.8l-1.2,1l0.5,1.5l-2,2.8l2.7,4.1
		l-1.1,1.1l0.6,2.8l-0.1,1.8l2.5,4.4v1.6l-0.9,6.4l3.8,2.1l1.2,0.4l3.4,2.7l-0.4,1.9l-1.3,2.5h-2.4l-1.8,0.6l0.3,1.6l3.1,4.9
		l0.5,1.4l-0.6,2.1l-0.1,2.8l-1.9,2l-1.3,0.8l-2.6,0.7l-0.9,2.4l-1.5,1.5l1.6,4.4l-0.6,3.9l-0.7,1.4l-1.9,0.2l-1-1.8l-0.4-1l-6-1.2
		l-2.3-2.9l-0.4-3.1l-2.5,1.2l0.6,1.1v2.3l-2.5,3.9l-1.1-0.2l-1.3,0.8l-1.3,0.2l-0.6-1l-1.1,0.2l-0.8,1l-3.4,1.3l1,0.7l-1.7,1
		l-0.6,0.9l-2.7,1.5l-4.3,3.9l-2.3,1.1l-1.6,1.2h-1.4l-1.8,0.9l-4.6,0.9l-3.1-0.4l-2.1,0.4l-1.1-0.7v-1.1l-1.2-0.1l-0.8,1.2
		l-1.6-0.4l0.7-2.4l-3.1-0.1l-3.8-1.6l-0.9-0.8l-3.1-1.3l-1.4-1.4l-0.8-1.6l0.3-3.6l0.6-0.5l2.7,0.8l2.8,1.3l-0.1-1.2l-2.4-1.6
		l0.8-1.8l-0.2-1.6l2.6-2.1l-0.4-0.7l-3.4,2l-3.1,0.9l-1.1,1.2l-1.1,0.6h-2.1l-0.5-0.9l0.5-3.3l1.2-2.7l1.8-1l3.4,0.7l1-1l1.3-0.2
		l2.4-1.2l-4.1,0.5l-1.2-1l2.8-2.4l1.2-1.4l0.3-1.5l2.2-1.7l1.8-0.8l1.6,0.6l1.5-1.9l-5,1.1l-2,1.1l-2.7,2.8l-0.2,1.1l-2,0.9
		l-1.5,1.5l-0.6,1.2l-2.8,1.9l-1.4,0.3v-2.4l1.1-2l-0.3-1.6l3.2,0.2l1.8-1.2h-2.7l-1.4-0.7l-1.2-1.5l-0.6-1.9l1.1-1.8l-2.2-2
		l-0.5-2.2l-0.1-2.5l0.9-0.5l2.1,0.4l2.4-0.2l5.2-0.9l3.4,0.6l1.4-0.1l2-0.7l1.9-0.1l2.2,1.2l0.7-0.5l5.4-1.2l-3-1.5l0.1,1.4
		l-3.6,0.3l-3.2-0.6l-1.3-0.6l-0.5,1.3l-1.1,0.3l-3.4-0.5l-4.7,0.3l-2.1,0.7l-1.4-0.1l-2.5-1.2l-0.9-0.9l-0.3-2.6l2.8-0.3l-1.9-2.3
		l-1.9-1.3l-0.2-1.4l0.7-1.3l1.5,0.2l3.8-0.1l6,1.5l4.9-0.3l-0.8-0.6h-2.9l-7.2-1.3l-2.2,0.1l-1.2-0.3l-0.7-1l0.4-1.9l1.1-0.4
		l1.2,0.6l1.9-2.3l1.9-1l2-0.5l2,1l1.3-0.1l4-0.8l-1.3-0.5l-3.5,0.5l-0.2-0.5l2.4-2.3l4.2-0.4l5.9,0.5l2.3,0.8l0.4-1.8l5.3-1.4
		l-6.8,0.8l-1.8-0.5l-4.9,0.7l-0.1-1.3l2.3-2.3l4.1-0.9l1.9-1.1l3.1-0.2l2.6,0.3l1.2,1.3l4.4,1.7l-5.1-4l1.1-1.7l3.3-0.4v-1.6
		l-2.2-0.3v-1.2l1.9-0.9l2.8-0.7l3.2,0.8l-0.6,1.3l0.9,0.5l1.7-1.5l3.9-0.8l2.8,2.1l0.5,1.1l1.1-0.5l2.7-0.5l2.7,0.3l1.8-0.2l-1-1.3
		l0.4-1l2.4-1l1.7-0.3l2.6-1.2l-0.8-1l-1.4-0.3l2.9-1.5l-1.7-0.6l-2.4,0.9l-1.6,0.9l1.5,1l-1.1,1.1l-6.1,2.8l-3,0.8l-1.4-0.1
		l-1.9-2.5l-2.1-0.1l1.3-2.2l1.6-0.8l1.4-2.3l2.3-1.3l3.2-3.3l2.8-1.1l0.9-1.1l3-1.5l3-0.9l0.3-1l-2.7,0.9l0.4-2.1l1.4-1l6.8-2.8
		l1.6,1.3l2.1-0.2l2.3-1.6l-0.3-0.7l-2.1,1h-1.5l-0.4-0.6l-2.1-0.5l-0.3-1.2l1.3-2.8l3.4-3.3l0.5-1.3l1.3-0.7l1.7,0.2l-0.2-1.1
		l-2.1-1.1l6.2-1.1h3l2.4-0.9l0.5-1l-6.4,1.1l-2.4,0.1l-0.8-2.7l0.2-1.5l1.9-2.2l1.4-0.2l1.7-1.1l0.1-1.5l2.3-0.8l2.1-2.1l2.3-0.5
		l1.4,0.2l3-0.7l6.6-0.1l0.1-0.6l-6.3-0.3l-3.5,0.2l-0.4-0.6l2.8-2.7l2-1l1.7,0.2l1.8,1L414,48l-1.6-1.5l0.7-1.5l-2.6,1.1l-1.8,0.3
		l-0.9-2l2.3-2h2.3l0.3-1.5l3.3-1.3l1.9-0.2l1.5-0.6l0.6,0.4l0.9,2.3l1.5,0.3l1-0.8l-1.3-1.1l-1.1-1.8l2-1.5l2.3-0.2l2.6,0.7
		l2.3-0.2l0.9-1.2l-6.3-0.1l-0.8-0.9l1.2-1.2l2.2-0.8l2.5-0.1l2.4-1.4l0.9-1.1l0.3-1.6l1.4-1.3l3.9-0.8l-0.6-2.2l0.8-1.4l1-0.6
		l2.1,1.5l1.8,0.5l-0.5-1.4l0.3-1.2h2.1l1-0.5l0.3-1.3l1.4-1.2l4.7-0.7l0.5,2.5l0.7,1.4l0.8-2.8l1.6-2.1l2.4-0.9l0.9,1.1l-0.4,4.3
		l-1.9,2.4l1.5-0.2l2.5-2.3l0.6-1.2l-0.7-2.8l0.6-0.8l3.5-0.1l1.9,0.4l0.7-1.5l1.7-0.1l1.8,0.9l4.1,1.4l-1.3-2.2l-1-0.8l-2.1-0.5
		l-2.2-1l1.2-1l2.4,0.3l2-0.8l2.2-0.2l1.1,0.6l0.8-1l2.5-0.5l2.8,0.9L486,14l2.4,1.4l-0.1-1.4l0.6-1.9l2.3-2l2.1-1l1.4-0.1l2.9-3.4
		l-1.6-1l3.3-2.3l1.1-0.1l5.4,2.1l1.5-0.9l3.4,0.8l-0.8,1l-3.1,2.9l-0.5,0.8l-0.1,2.2l-1.2,1.4l0.8,1.4l1.6-0.4l1.8-1.3l0.1-1.3
		l4.3-3.7l1.9-2.1l2.3-1.7l1.5-0.3l0.9,1.1L520,5.7l0.2,4.3l3.7-1.4l1.1-3l1.1-0.7l-0.8-1.4l0.4-1.1l2.3-1.3l2.2,0.4l3.3,0.3
		l2.7,0.8l0.2,1.4l-0.8,0.9L532.7,6l0.7,0.7l2-0.6l0.9,5.5l0.9-2.1l1-0.7l0.1-1.5l0.8-1.9l1.8-1.3h2.7l3.3,1.7l2.5,0.3l1.8,0.8
		l2.4-0.7l2,1l0.1,1l3.8,0.3l3.8,1.6l0.6,1.6l-4.4,1l-1.8,1l-3.3,0.4l-11.5-0.7l0.4,0.7l8.3,1.5l0.6,0.5l0.4,2.1l1.8,0.7l3.5-0.2
		v-1.3l3.2,0.6l3.8,0.2l1.1,1.7l-0.3,1.5l-2.4,0.1l-4.2-1.4l-0.4,2.3l-1.1,0.9l-5.8,1.3l-1.1,2.6L548.5,28.2L548.5,28.2z M508,0.5
		l3.7,0.5l2.2,1.4l-3.6,0.5l-1.7-0.1l-2-1.8L508,0.5L508,0.5z"/>
	<path id="PL" class="st0" d="M521.6,235.9l0.6-0.6l2.3,0.7l4.5,2.2l1.1,0.9l0.8,3l2.1,5.1l2.9,4.9l1.7,3.6l0.9,3.9l-0.6,1.6l-4,1.7
		l-0.8,0.5l-2,2.7v1.2l3.3,1.3l1.8,1l0.8,1l-0.2,2.4l0.4,1.1l-0.8,1.5l0.1,1.3l1,1.6l1.2,1.8v1.3l2.7,2.8l1.9,2.8l1.4,1l-1.2,1.3
		l1.8,2.6l0.1,1.3l-1.2,1.8l-3,0.5l-4.8,4.6L534,303l-3.4,4.4l-0.6,1l1.5,3.8l-0.1,1.8l1.9,1.4l-0.4,0.9l-3.3-0.7l-0.9-0.2l-5.7-1.9
		l-0.8-1.4l-1-0.7l-3.1-1l-3.6-0.3l-3.2,0.2l-1.4,1.5l-1.8-0.1l-2.4-1l-3,0.1l-2.3,1l-1.1,2.1l-1.7-0.6l-1.4,0.4l-0.6-2.7l-1.4-0.4
		l-3-3l-2.2,1.3l-1,1.7h-2.2l-0.5-1.5l-1.3-0.2l-0.5-1.6l-2.8-2.2l-0.5-1.8l-2.7-0.8l-0.5,0.2l-3.5-1.8l-1.8,1l-1-0.6L468,299
		l1.4-0.5v-1.6l-3.6,0.7l-3.3-1.9l-2.2-0.6H459l1.7,2.4l-3.5,2.5l-1-0.4l-1.5-1.9l-2-1.8l-1.6-0.9l1.6-1.2l0.7-1.1l-1.8-1.2
		l-3.2,0.7l-0.8-0.9l-2.7-1.1l-4.6-1.1l-1-1.1l-0.3-1.1l-3.3-0.8l0.1,1.9l-2.1,0.4l1.6-3.6l0.4-2.3l-1.6-3.2l-2.2-0.9v-1.6l-1.9-3.1
		l0.8-1.1l0.7-2.6l-0.8-1.9l-2-2.3l0.6-2.6l-1.4-1.7l-3.3-2.1L423,258l0.7-1.6l1.9-1.8l0.3-2.7l-1.8-4.1l-0.7-2.6l2.8,0.9l0.7-0.5
		l-0.1-1.8l-4.1-0.7l-0.1-1.2l2,0.4l3.8-1.4l6.5-1.8l6.9-1.7l3.3-0.5l2-2.2l1.9-1.7l3.8-0.7l1.3-0.8l2.8-1.2l6.6-1.2l5.5-0.4
		l5.4,2.3l-0.9,0.3l-3-1.2l2.2,3.5l1.1,1.2l2,0.9l1.7,0.3l4.9-0.5l2.2-1.1l0.5,0.1l6.6,0.4l22.9,0.9L521.6,235.9L521.6,235.9z"/>
	<path id="PT" class="st0" d="M160.8,499.8l-1.2,0.2l-4.5,2.5h-1.3l-2.5-1.1l-4.5-0.4l-1.5-0.3l-1.8,0.7H142l-1.1,1l-0.8-0.3l1-2.1
		l1.6-4.1v-2.6l0.4-2.2l-0.3-2.1l-0.7-1.4l1.1-3.5v-1.8l-0.9-2.3l2.8,0.3l-1.7-1.4h-1.5l-2.3,0.9l-1.5,0.1l0.1-1.4l-0.5-1.8l2-0.6
		l1.6-1.7l-0.3-1.6l-1.2,1.1l-0.6,1.4l-2.8,0.7l-1.5-0.5v-1.9l0.6-1.7l0.4-2.3l0.8-2.2l-0.2-1.4l1.6-1.3l1.4-1.9l4.3-8.9l-0.6-1
		l1.7-6.6l1.2-2.3l0.6-4.3l-0.2-2l-0.7-2l-0.7-4.3V430l-0.9-1.8l0.1-1l1.4-1.7l1.2-1.1l1.9-0.9l4.1-1l1,1.8l-1.3,1.9l0.9,1.3l3-1.1
		l2.9-0.1l2.2,0.8h1.4l2.5-0.9l0.8-1.4l1.5,0.5l5.2,0.1l0.7,1.1l0.1,3.1l1.9,0.2l1.9,0.9l0.3,1.1l-2.5,2.5l-2.1,1.1l-1.6,1.4
		l-1.1,1.6l-2,1.6l0.8,2l0.4,3.5l-0.4,3.8l0.4,1.1l-2.7,2.1l-0.2,1l1.4,1.3v1.9l-1.7,3.5l-1,0.5h-4.3l-1.1,0.3l1.1,1.9l1.4,1.2
		l0.3,1.9l1.6,3.2l1.7,0.4l0.5,0.8l-0.6,2.4l-3.2,3l-0.9,4l3,4.3l1.7-0.2l-0.7,2.4l-2.1,0.6l-3.5,4.3l-0.8,2.2L160.8,499.8
		L160.8,499.8z"/>
	<path id="RO" class="st0" d="M606.2,371.1l1.5,1.6l1.8,0.9l4,0.9l0.6-1.2l0.9,0.3l1.6-0.5l2.2-1.3l2.2-0.2l2.2,0.7l1.9,1.8
		l-0.2,4.3l-0.7,2.1l-6.2,1.3l0.4-0.6l-0.7-2l-1-1l-0.9,1.1l0.6,1.7l-0.7,1.4l-0.2,2.4l0.6,0.9l-1.6,2L614,389l0.8,4.8l-0.4,3.7h-2
		l-2.6-0.5l-2.2-0.7l-2.5-2.6l-1.7,0.5l-0.9-0.6l-3.2-0.4l-4.5-2.3l-2.9,0.4l-4.4,0.9l-3.2,1.2l-3.3,2.1l-1.2,1.6l-1.6,0.9l-2.3,0.6
		l-4.2-0.2l-9.4-1.7l-2.5,0.5l-3.5-0.4l-5.3-1l-3.9-0.3l-3.7,0.6l-0.9-1.8l1.8-2l-4.3-2.5l-0.8-1.2l-1.6-0.9l-0.5-1.7l2.5-1.8
		l-3-1.6l-1.7,0.5l-1.7,1.8l-1.3,0.2l-1-1.2l-1.5-0.7l-3.5-0.7l-1.5-1.2l-2.1-0.6l0.2-0.6l1.8-0.8l-2.3-1.1l1.5-2l-0.9-1.1l-2.6-0.8
		l-3.8-1.9l-2.2-1.8l-0.4-4.1l-0.8,0.2l-1.8-2l-2.9-1.7l-1.7-2l3.2-0.9l1.4,0.5l2.5-2l2.6,0.3l1.3-0.9l1.5-4.7l2.1-1.5l-0.2-1.3
		l1.6-2.7v-1.2l1.4-1.5l0.7-2.5l1.4-1.4l-0.1-1.7l1.2-1l1.9-2.4l4.6-1.1l2.2-2.3l2.1-0.9l0.9-1.2h0.7l2.7,1.5l2.7-0.1l6.9,1.4
		l3.6-0.7l1.2,0.3l4.3,3.3l2.1-0.5l1-1.2l3.4-1.3l8.4-1.2l1.1-1.9l0.2-1.4l3.7-0.8h2.1l2.5,1.6l2.5,3l3,4.9l1.5,1.3l2.5,3.2l2.1,1.8
		l1.3,1.7l3,2.1l1.4,2.9l1.4,2.3l0.5,2.9l-0.9,4.8l0.1,2.6l1.4,5l-0.9,0.7L606.2,371.1L606.2,371.1z"/>
	<path id="RS" class="st0" d="M506.4,361l1.7,2l2.9,1.7l1.8,2l0.8-0.2l0.4,4.1l2.2,1.8l3.8,1.9l2.6,0.8l0.9,1.1l-1.5,2l2.3,1.1
		l-1.8,0.8l-0.2,0.6l2.1,0.6l1.5,1.2l3.5,0.7l1.5,0.7l1,1.2l1.3-0.2l1.7-1.8l1.7-0.5l3,1.6l-2.5,1.8l0.5,1.7l1.6,0.9l0.8,1.2
		l-0.9,0.7l-0.2,1.9l-2.1,1l-0.4,2.3l0.6,2.4l2.4,3.9l2.9,1.5l1.3,1.6l1.6,1l-0.3,1.4l-1.6,1.7l-1.1,1.6l-1.8,0.1l-1.1,0.6v3.3
		l1.4,2.9l-1.1,1.7l-1,0.3l-1.4-0.7l-2.3,0.8l-1.9-0.3l-2,0.9l-2.2,0.3l-0.6-1.3l1-0.9l1.2-3.2l0.2-1.2l-4.7-1.2v-1.3l-2.2-1.2
		l-0.2-0.7l-2.3-2.1l-2.8-1.3l-1.1-1.3l-1.7,0.9l0.6,1.6l-0.4,1l-1.7,1.3v1.4l-1.5,0.5l-0.1-1l-5.3-2.9l-2.1-0.5l-3-1.6l-1.9-2
		l-2.6-1.7l-0.4-1.2l0.7-0.8l2.5,0.3l0.2-2.2l-3.2-3.7l0.5-0.8l3.1,0.1l0.3-0.8L498,390l-2.4-1.2l-0.5-0.8l0.1-2.6l1.6-2.7l0.5-2.5
		l-1.5-0.8l-2.8,0.7l1-1.6l-0.7-2.6l1.7-0.4l2.3-0.1l-0.9-1.5l-3-1l-1.2-1l0.4-2l-1.3-0.4l-0.2-1.6l-1.6-2.7l0.7-1.5l2.1-1.3
		l1.6,0.5l2.2-1l1.5-1.6l1-0.3l2.9,0.4l1.1-0.2l2.8,0.3L506.4,361L506.4,361z"/>
	<path id="SK" class="st0" d="M529.6,315.6l-1.5,3l-0.8,2.9l-1.6,1.7l0.1,2.5l-4.3,1.1l-0.6-0.2l-2.2-2.2l-1.4-0.9l-4.6,0.7
		l-2.5-0.6l-2.7-0.1l-1.8,0.4l-1.6,3.5l-5,2.5l-3.5-1.4l-0.7,0.2l-1,1.5l-2.4,0.6l-4.3,0.4l-1.4,0.7l-0.4,1l0.5,1.3l-0.6,1l-7,0.4
		l-4.7-0.1l-1.6-0.7l-4.2-2.7l-2.1-0.3l-2.3-2.9l-1.6-2.9l-0.1-0.8l0.9-2.4l1.1-2.8l1.4-1.2l3.6,0.5l1.7-0.2l1.5-0.7l2.1-1.9
		l1.6-0.8l0.7-3l2.3-1.2l0.6-0.8l2-1.5l2.8-0.3l1.3,0.2l0.5,1.5h2.2l1-1.7l2.2-1.3l3,3l1.4,0.4l0.6,2.7l1.4-0.4l1.7,0.6l1.1-2.1
		l2.3-1l3-0.1l2.4,1l1.8,0.1l1.4-1.5l3.2-0.2l3.6,0.3l3.1,1l1,0.7l0.8,1.4l5.7,1.9L529.6,315.6L529.6,315.6z"/>
	<path id="SI" class="st0" d="M460,355l-2.5-0.6l-0.9,0.8v1.7h-2l-0.7,1l-4.4,1.7l-0.4,1.4l0.9,0.9l0.2,2.2l-0.4,1.1l-2.1,0.6
		l-2.1,1l1,1.1l-0.7,0.7l0.8,2.3l-1.2,0.4l-1.6-0.2l-2-0.7l-1.3,0.5l-1.5-0.7l-2.6-2.1l-1.2,2.2l-0.6,0.3l-3.6,0.1l-1.1-0.5
		l-1.4,1.3l-3.3-0.8l-0.5-0.6l1.7-1.1l1.5-0.1l-0.2-1.3l-1.5-1.3l-1.9-1.1l0.4-2l-1.3-0.2l-0.3-1l1.6-2.1l-2.3-0.7l-0.7-1.4l3.3-2.3
		l0.2-0.9l5,0.9l5,0.7l3-1.2l1-1.3l1.9-0.7l2.6-0.2l2.8,0.2l2.3-1.1l1.6-0.2l2.4,0.5l0.1-1.9l1.3-0.9l2.4,0.1l1.4,3.3L460,355
		L460,355z"/>
	<path id="SE" class="st0" d="M445.9,207.3l-1.5-0.3l-0.3-3.8l2-4.6l1-0.3l2.7-6.5l0.5,2l-1.5,3.2l-0.3,2.2l-0.6,0.5L445.9,207.3
		L445.9,207.3z M472.1,184.6l-1.3,1.4l-1.4,0.5l0.1,3.3l1.5,1.2l-1.3,0.5l-0.7,1.8l-1.8,0.6l-1.5,1.6l-0.3,1.6l-2.1,0.9l1.2-2.4
		l-0.9-0.7l-1.4-2.1l0.4-0.9l-0.6-3.2l2.7-2.9l1.3-1.1l3.3-1h1.3L472.1,184.6L472.1,184.6z M508.9,71.6l-2.7,0.3l-2.2-0.6l-1,0.3
		l-3.8,0.3l-1.1,0.7l-2.1-0.7l-2-1.2l-2,1.1l-1.6-1l-1,1.9l0.1,1.8l-1.8-0.2l0.3,1.1l-2,1.5l-3.2,0.2l0.7,1.5l-0.9,0.7l1,1.7
		l-1.3,1.5l-2.1,1.9l-0.5,1l1.7,1.1L483,89l1.6,1.1l-0.4,1.2l-2.1,1.1l-2.2,1.7l-2,4.3l-3.1,1.3l-2.4,1.6l-3,0.7l-2.4,2.2l-1.8-0.8
		l-1.5,0.5l-1,1.8l-1.9,1.5l-2.4-0.2l0.2,0.8l-2.3,0.3l-1,4l-2.2,0.6l-0.7,0.8l-0.9-0.6l-2.1,0.1l1.6,2.8l-1.7,1.8h-1.2l-1.5,0.7
		l-1.9-0.8l-0.2,1.2l0.8,1.3l1.3,1l-0.1,1.3l-0.9,4.3l0.7,1.8l-2.1,1.2l-0.8,1.1l0.6,1.7l-0.1,1.1l0.7,1.9l0.8,4.2l1.1,2l-0.1,1.6
		l1.3,0.9l2.1-0.1l1.4,1.6l3.1-0.8l0.8,1.1l2.9,2.2l1.7,0.3l1.9,1.2v1.5l2.9,1l1.9,2l0.8,1.6l-0.1,1l-2.6,1.5l-1.3,1.3l-3.8,2.1
		l-0.6-0.1l-2.1,1l2,0.6l1.4-0.7l2.6-0.6l1.4,1.2l-2.2,0.5l-0.3,1.6l-0.8,1l-2,0.7l-2.8,1.5l-4,1.4l-1.1,1.2l-2.6,1l-1.3,0.8h-3.8
		l-3.7-0.1l1,0.9l0.9-0.2l3.6,0.4l1.7,1.3l-3,0.9l1.7,3.2l-0.7,0.8l0.4,3.5l-1.1,0.1l-0.3,1.4l0.6,2.5l1,2.1l-0.1,1l-1.5,2.4
		l0.9,2.9l-1.5,5.3l-1.9,3.1l-1.3,4.1l-1.8,1.4l-2.4-0.9l-3.4,0.5l-3.2-0.3l-3,0.2l-0.8,0.4l0.7,1.4l-2.3-0.2l-1.7,1.1l-2,2.1v1.5
		l1.9,3l-1.7,2h-1.1l-3.2-0.5l-5.5,1.2l-5.1-1l0.5-1l0.2-3.1l-0.6-1.7l-1.3-1.1l-3.1-3.8l-1.2-2.3l2.4,0.9l1-0.5l-1.8-2.6l2.2-0.1
		l0.7-1l-0.6-1.5l-1.9-0.6l-1.9-2.4l-1.8-1.2l-3.5-4.7l-1.3-3.2l-1.1,0.3l-1.2-3.7l-1.7-0.6l-0.6-3.7l-1.8-0.4l-1.3-1.7l-0.4-3.2
		l-1.2-0.6l-0.8-1.4l-0.8-3l-0.3-2.7l-0.9-1.8l0.5-1.2l1.1-0.2l1.1,0.8l1,1.8l1.9-0.2l0.7-1.4l0.6-3.9l-1.6-4.4l1.5-1.5l0.9-2.4
		l2.6-0.7l1.3-0.8l1.9-2l0.1-2.8l0.6-2.1l-0.5-1.4l-3.1-4.9l-0.3-1.6l1.8-0.6h2.4l1.3-2.5l0.4-1.9l-3.4-2.7l-1.2-0.4l-3.8-2.1
		l0.9-6.4v-1.6l-2.5-4.4l0.1-1.8l-0.6-2.8l1.1-1.1l-2.7-4.1l2-2.8l-0.5-1.5l1.2-1l3.5-3.8l3.3-1.5l3.3-0.4l7.1,0.9l1.7-2.2l-0.1-1.2
		l-1.1-2.9l-4.7-1.6l4.4-5l3.3-5l0.1-4.7l0.6-2.7l-1.4-3.9l3.8-0.4l2.4-0.5l3.3-1.5l-1-2.5l1.3-0.9l3-2.9l3.3-2.9l1.5-1l0.2-1.4
		l-1-1.3l-2.7-2.3l0.5-1.1l2.7-0.6l1.1-1.1l1.5-3.5l3.7-1.9l1.5-0.9l6.3,1.8l2.1-3.1l-0.8-3.6v-0.8l2.1-0.5l4.1,0.9l2.9,0.1l8.6,1.7
		l1,0.1l2.5-1.6l-2.9-0.9l1.6-0.9l1.4-1.9l-0.1-2l-2.6-1.6l5.1-0.2l2.9,0.8l0.4,0.9l2.9,1.1l4.8,2.3l4.2,1.8l8.3,1.7l3.5,1.8
		l1.2,1.6l1.4,0.1l1.9,1.5l1.8,0.9l-1.1,1l0.4,2.4l0.7,1.4l-0.3,1.9l2.8,0.4l0.6,1.3l-1,0.8l-0.1,1.1l0.8,1.6l3.3,2.6l0.6,0.9
		l-0.7,1.4l0.1,1.8l-1.5,1.3v1.3l1.3,2.6l1.8,0.6l1.9,2.2L508.9,71.6L508.9,71.6z"/>
	<path id="TR" class="st0" d="M588.2,453.6l-2.9,0.5l-0.1-1.5l2.2-0.6L588.2,453.6z M782.7,432.1l4.3,1.3l1.1-1l3.6,0.1l3.4,0.8
		l0.9-1.9l1.4-0.4l1.4,0.3l0.6,1.1l1.2,0.4l3.5,2.5l1.1,1.7l1.9,0.2l1.3,1.2l1.3,1.6l1.7,1.2l1.7,3.3l-0.2,2.3l-1,1.4l0.8,1.9l1.9,3
		l-0.5,0.6l1.8,0.9l2.9,0.9l3.5-0.4l1.6,0.7l2.3,1.7l3.2,2.8l0.8,0.9l-3.3-1.9l-1.4,1.6l-0.1,3.8l-0.6,0.4L822,465l-1.2,0.4l1.2,2.5
		l1.4,1.2v2.3l2.1,2.5l0.2,2.1l0.9,2.2l0.3,2.2l0.5,0.7l1.4,0.3l-0.6,3.8l-0.6,1.2l-0.4,2l1.7,0.6l3.2,2l0.1,1.3l0.6,1.5l0.3,2
		l3.2,2.3v2.3l-2.1-0.5l-3.7,3.1l-1.2-1.2l-0.3-2.4l-1.5-1.5l-1.3-0.2l-2.1,1.4l-4.2-0.3l-2.9-1.1l-2.9-0.8l-1.9,0.6l-2.2-0.7
		l-1.5,1.9l-2,1.9l-1.2,0.3l-1.6-2.6l-1.3-0.2l-1.2,1.3l-2.2,0.8l-4.6,1l-3.2,0.3l-4.1-0.6l-3.2,0.2l-3.1,1.4l-5.2,2.8l-4.1,1.4
		l-4.2,0.9l-7.6-0.2l-1.1-0.3l-3.5-2.3l-3.4-0.6l-3.4,1.6l-2.3,0.8l-3.5,1.6l-4.8-0.1l-1.9-1.7l-3.7-0.7l-0.6,1.6l-0.3,3.8l1.8,3.1
		l-3.3,1.4v2.6l-1.8,1.1l-0.8,1.6l-2.2-1.2l-1-0.1l0.7-1.3l-2.5-4.9l0.7-1.5l3.5-3.9l-0.4-2.4l-2-1.6l-2.9,2.1l-1.7,0.8l-0.3,1.2
		l-1.1,0.8l-1.8,0.4l-2.9-1l-3.2-1.4l-1.9-1.1l-1.4-0.3l-1.3,0.5l-3.5,2.8l-3.1,4.1l-0.8,0.8l-3.2,1.7l-2.2,0.6l-1-0.1l-4.4,0.8
		l-2.2,0.1l-1.6,0.9l-3.5-1l-2.2-1.3l-1.4-1.3l-2.3-2.9l-1.6-1.3l-3.3-1.2l-5.8-3L658,505l-4-0.3l-0.7,1.1l0.1,4.2l-0.5,1.2
		l-0.1,2.2l-1.1,1.1l-2.1-1l-1.9,0.9l-3.7,1.3l-1.2,0.1l-4.6-1.6l-2.9-2.1l-0.6-2l-1.3-2.7l-1.8,0.3l-2.3-0.4l-3.2-1.6l-2.4-0.1
		l-1.2,1.9l-1,0.7l-1.3-0.4l0.8-1.3l-3.7,0.2l-1.8,1l-1.5-0.1l-1-1l2-0.6l3.9-0.4l0.9-0.4l0.9-1.3l1.7-1.2l-1.2-0.5l-6,0.3l-4.2-0.2
		l-1,0.7l-0.4-1.6l3.6-1.4l-0.3-1.3l-4.2-2.2l-0.3-1.6l-2-3.1l1.9-0.5l0.1-2.5l-0.4-1.5l-3.9-1.3l-0.8,0.1l-1.1-1.3l-1.7-0.9
		l-1.2,0.7l-3.3-1.4l-0.6-0.6l0.5-1.4l1-1.1l-0.9-1.9l-0.1-1l1.8-0.1l1,1.1l0.3,2.2l3.6,0.7l2.9-0.6l-2.5-1.1l-1.1-1.2l-1.2-2.3
		l1.8-1.1l1.2-1.7l-2.7-1.2l0.2-2.4l-2.5-2.7l0.3-0.8l2.3-2.8l-1.2-0.7l-4.3,0.7l-1.6,0.6l-3.1,0.2l-0.3-1.6l0.6-1.3l-0.5-3.4
		l0.2-1.8l1.7-0.6l1.7-2.7l3-3.1h3.5l1.3-0.9h2.1l0.8,1.2l1.9,0.9l3.2-0.1l1.4-0.9l-1.6-1.5l1.7-0.5l1.5,0.4l-0.1,1.8l4.1-0.5
		l4.4,0.4l1.4-0.2h3.4l0.5-0.5l-3.6-1.7l2-1.5l6.8-1.2l3.7-0.8l-5.7-0.8l-1.4-0.6l-2-1.4l-1-1.1l0.3-2.6l0.6-0.7l2.2-0.1l7.7,1.2
		l5.3-0.8l6.1,1.8l5.6-0.4l1.1-0.7l1.1-2.6l7.4-4.2l2.4-2.1l2.8-1.2l5-1.4l4-1.7l1.2-0.2l10.4,0.8l7,0.1l3-1.6l2,0.5l-0.1,2.1
		l2.6,2.6l3.5,1.4l4.4-1.2l1.8,0.5l2.2,4l1.5,1.4l1.8,0.9l1.3,0.2l1.5-1.4l1.7-0.1l2.9,1.3l1.2,1.4l4.8,1.1l4.3,0.6l2,1.2l6.2,1.2
		l2.2-0.2l3.6-1.3l7-1.3l5.2,1.9l2.5,0.1l1.7,0.5l1.7-0.3l5-2.3l1.4-1.2l1.7-0.4l5.2-3.3L782.7,432.1L782.7,432.1z M610.8,425
		l-0.1,1.8l1,2l2.3,2.7l2,1.4l8.1,3.3l1.4,0.3l-0.9,3.5l-2.1,0.5l-6.4-1.5l-1.6-0.1l-2.9,1.4l-2.3-0.4l-3.1,0.6l-0.6,2.1l-2,2.4
		l-3.3,1.9l-2.5,1l-3.5,3.7l-1.5,2.2l-1.5,0.7l0.5-2l-0.3-1.7l2.3-2l3.3-1.6l0.7-1.3l-5.4,0.3h-3.3l-1-1.8l0.8-0.4l2.5-3.2l-0.5-4.4
		l3.4-2.5l-0.9-3.1l-2.3-1.5l-1.2-0.3l0.3-1.4l1.9-0.3l1-2.2l3.4-0.4l1.5-1.1l3.5-0.3l3.4,2.5l1.5-0.6h1.8l0.9-0.4L610.8,425
		L610.8,425z"/>
	<path id="UA" class="st0" d="M651.5,359.5v0.6l-3.9-0.8l-0.9-0.9L651.5,359.5L651.5,359.5z M625.1,374.1l-1.9-1.8l-2.2-0.7
		l-2.2,0.2l-2.2,1.3l-1.6,0.5l-0.9-0.3l-0.6,1.2l-4-0.9l-1.8-0.9l-1.5-1.6l1.1-0.7l2-0.2l0.4-1l-0.5-1.4l2.5-2.9v-1.3l2.3-1.7l0.4-2
		l-1-1.7l-0.5-2.1l2.5-1.6l2.1,1l1.9,0.2l2.1,0.8l1.6-0.6l1.2,1.3l2.9-0.4l0.6-0.7l-2.9-1.7l-0.2-2.9l-1-1.6l-2.1-0.8l-2-1.3
		l-0.9-1.9v-2.4l-2.9-2l-2.3-1.2l-0.6-1.2l0.6-3.1l-0.6-2.3l-1.4-1.4l-1.4,0.7l-1.4-1l-1.4-1.9l-5.6-0.6l-0.6-1.2l-2.5-0.3l-3.6-2.4
		l-3.5-1l-1.6,1l-0.8-0.3l-1.2,1l-4-0.1l-0.7-0.2l-2.3,1.4l-0.2,0.6l-3.7,0.8l-0.2,1.4l-1.1,1.9l-8.4,1.2l-3.4,1.3l-1,1.2l-2.1,0.5
		l-4.3-3.3l-1.2-0.3l-3.6,0.7l-6.9-1.4l-2.7,0.1l-2.7-1.5h-0.7l-0.9,1.2l-2.1,0.9L535,331l-0.9-0.7l-2.3-0.4l-0.9-1.1l-2.2-0.8
		l-1.4-2.3h-1.5l-0.1-2.5l1.6-1.7l0.8-2.9l1.5-3l3.3,0.7l0.4-0.9l-1.9-1.4l0.1-1.8l-1.5-3.8l0.6-1l3.4-4.4l2.4-2.7l4.8-4.6l3-0.5
		l1.2-1.8l-0.1-1.3l-1.8-2.6l1.2-1.3l-1.4-1l-1.9-2.8l-2.7-2.8v-1.3l-1.2-1.8l-0.1-1.4l1.1-0.5l1.9,0.3l1.1,0.5l1.9-1.2l1.6-1.6
		l0.8-1.4l5.9-0.5l2.3-0.5l2.4-0.1l7.8,0.4l6.5,1.5l6.1,0.9h2.3l1.8,2.1l1,0.3l3-0.1l1.1,0.4l0.8,1.4l1.2-1.7l1.9,0.5l1.9-0.7l5.1,1
		l0.8,1.3l1,0.3l0.6-1.1l3.8-1.6l2.5,3l0.6,0.5l2.3-0.8l7.1-0.6l2,1.1l0.5,1.2l2.7,0.9l0.8-1.4l-1.8-3.6l1-3.3l0.8-1.2l2.2-2.3
		l1.1-0.5l1.7,0.4l1.4-0.8l5,0.1l2.6,0.8l1.7-0.1l1.8-0.9l0.5-2.4l1.6-0.6l3.7,0.9l1-0.1l2.7-1.2l1.6-0.2l2,0.3l3.4-0.2l2.5,1.4
		l1.4,1.4l1.7,2.7l4,3l-0.1,1l-2.9,0.5l1.3,1.9l0.5,2l1.2,1.7l-0.4,1l3.1,0.1l2.9,1l4.1-0.5l1.5,2.2l1.9,0.2l0.2,0.9l1.4,2.8
		l0.9,1.1l-0.2,1.8l0.5,1l1.9,1.6l0.7,1l1.1,0.4l2.3-1.4l2.8,0.4l2.7,2h2.3l1.7,1.1l1.4-1.3l4.3-0.9l2.3-1l1,0.1l2.3,1.8l0.5,1.2
		l1.5,1.6l4.7,2.9l1.3-0.6l0.9-1.5l2.6,1.4l2.4,0.2l3.6,1.9l1.4,0.1l1.6-0.6l2,1.8l1.9,0.2l4.4,2.3l2.9-0.3l1,0.8l-0.1,1.7l1,0.9
		l-0.1,2.6l-1.7,2.1l-2.3,0.8l1.1,1.5l3.1,0.9l-0.9,0.9l-1.4-0.2l-0.8,1l-0.3,2.3l2.5,0.7l1.2,2.8v1.1l1.2,0.3l-1.3,4.7l-0.1,1.8
		l-4.2,0.2l-6-0.3l-0.9,0.2l-0.9,1.9l-2.3,1.4l-1.7,0.2l-0.8,0.8v2.3l-0.4,1.3l1.1,0.7l-0.7,1.6l0.5,1.3l-0.5,0.1l-4.3-0.2l-3.4,0.3
		l-2.1,2.4h-1.5l-3.2,1.5l-1.4,1.7l-1.4-0.8l-3.1,0.5l-1.7,1.1l-3.1-0.1l-2.3,0.6l-4.6,3.8l-1.3,0.1l-1-1l-1.6,2.6l-2.4,1.2l0.6,3.1
		l2.8,4.5l3.6,3.9l1.7,1.4l2.4,0.7l3.1-1.4l2.4,0.4l1.7-1.2l1.5-0.1l3.7,1l-1.1,2.5l-0.3,2.6l-1.9,0.6l-2.2-0.1l-2.2,0.4l-2.7-1.5
		h-2.5l-1.1,1.9l-2.3,1.3l-0.6,1.4l-2.6-0.3l-2.1,0.2l-2.8,1.4l-1.9,2.8l-2.3,1.8l-1.9,0.5l-2-0.1l-1.3-0.6l-2.9-1.8l0.7-2l0.5-3.5
		l-1.2-2.9l-2.3-1.4l-1.6,0.2l-0.9-0.3l-3.7-2.4l-1.9-0.2L661,373l-1.5-1.2l3.5-2.9l3.5-2.4l1.7-0.2l2.1-1.2l2.2-1.6l-1.3-2.3
		l-1.9,0.6l-2.2-1.1l-0.9-0.8l-3.1,0.8l-1.8-0.1l-3.8,0.8l-1.9-0.8l-4-2l-2.6-0.3v-1l1.8-0.3l0.1-1l-3.8-0.6l-0.1-1.3l2,0.5l3.2,0.2
		l2.9,0.5l2.1-1.8l-2.4,0.5l-2.9-0.5l-2.1-1.8l-2.2,1.2l-3.2-0.5l-2.4,0.8l-2.3-0.2l-4.1,1.1l-0.4,2.9l-2,4l-3.1,3.7l-4.6,2.1
		l-1.7-0.4l-0.9,1.1l0.2,1.3l1,0.9l1.1,3.1L625.1,374.1L625.1,374.1z"/>
	<path id="XK" class="st0" d="M528.8,420.7l-2.1,0.4l-1.5,1.9l-1.6-1.2l-1,0.1l-3.4,1.5L519,426l-0.5,0.8l-1.7-0.3l-0.1-2.2
		l-1.4-3.2l-1.9-1.3l-1.4-0.5l-2-2.9l-0.5-0.4l0.2-1.3l-0.9-1.5l2-0.4l0.2-0.7l1.6-0.4l1.5-0.5v-1.4l1.7-1.3l0.4-1l-0.6-1.6l1.7-0.9
		l1.1,1.3l2.8,1.3l2.3,2.1l0.2,0.7l2.2,1.2v1.3l4.7,1.2l-0.2,1.2l-1.2,3.2l-1,0.9L528.8,420.7L528.8,420.7z"/>
	<path id="ES" class="st0" d="M275.2,472.6l-0.4,1l-2-0.4v-1.5l1.2-1.6l2.7-0.7l0.8,1.3L275.2,472.6L275.2,472.6z M296.9,459
		l1.2,0.5l1.3-0.5l1.4,0.4l0.2,1l-2.2,3.5l-0.6,1.4l-2.1,1.3l-4-1.7l-0.3-1.6l-1.4-0.7l-1.7,1.3l-1.4-1l-0.3-1.2l5.3-3.7l1.5-0.9
		l3.2-0.9l0.5,1.2L296.9,459L296.9,459z M311.6,458.2l-0.3,0.2l-3.9-1.9l-1.6-0.4l0.1-1.4l2.6-0.2l2.1,0.7l1.2,1.8L311.6,458.2
		L311.6,458.2z M234.2,402.7l0.5,1.3l4.3,1.3l-0.3,3.2l1.8-0.4l4.4,1.7l2.2,0.2l2.2,2.1l3.6-0.4l3.2,2.1l3.1-0.4l0.7,0.4h4.7
		l0.8-2.4l4,1.1l2.5,1l1.7,0.3l1.1,1.5v2.1l0.7,0.4l2.8-1.1l2.8,1.2l1.3,1.2l2.1-1.1l4.7,1.2l1.2-0.8l3.8-1.1l3.1,0.6l1.2,2.2
		l-1.8,0.5l-0.2,1.4l1.2,1.3l0.1,2.1l-3,2.8l-8.7,4.7l-2.9,2.7l-6.6,1.5l-4.5,1.5l-2.2,0.5l-4.1,3.8l1.1,0.3l1.2,1.2l-0.4,0.6
		l-2.5,1.1h-0.9l-2.9,4.6l-2.6,3.3l-1.5,1.5l-1.5,2.1l-3.2,5.6l-0.1,1.6l1.6,5.5l2.2,2.7l2.4,1.1l0.6,1l-0.8,1l-2.4,1.7l-4.3,2.3
		l-1.8,1.9l-0.3,1.8l-1.3,0.8l-0.5,2.5l-1.8,4.4l1.3,1.2l-1.3,0.8l-6.5,0.3l-4.1,2.8l-2,2.4l-1.9,4.5l-2.2,2.6l-1,0.5l-1.5-1.2
		l-1.9-0.1l-1.9,0.3l-1,1l-1.5,0.5l-1.5-0.5l-4.6-0.2l-2.3,0.8l-1.9-0.5l-3.2-0.3l-7,0.6l-4,3.4h-3.4l-3.1,1.2l-2.1,3l-0.5,1.6
		l-1-0.3l-0.3,1.2l-2.1,0.8l-2.4-1l-2-1.5l-1-0.1l-1.6-2.2l-1.2-3.1v-1.1l-1.5-0.6l-0.3-1.4l0.2-1.6l-1.2-2l-5-3.7l-3.7-0.3l-3,0.5
		l-1.1-6.4l0.8-2.2l3.5-4.3l2.1-0.6l0.7-2.4l-1.7,0.2l-3-4.3l0.9-4l3.2-3l0.6-2.4l-0.5-0.8l-1.7-0.4L163,466l-0.3-1.9l-1.4-1.2
		l-1.1-1.9l1.1-0.3h4.3l1-0.5l1.7-3.5v-1.9l-1.4-1.3l0.2-1l2.7-2.1l-0.4-1.1l0.4-3.8l-0.4-3.5l-0.8-2l2-1.6l1.1-1.6l1.6-1.4l2.1-1.1
		l2.5-2.5l-0.3-1.1l-1.9-0.9l-1.9-0.2l-0.1-3.1l-0.7-1.1l-5.2-0.1l-1.5-0.5l-0.8,1.4l-2.5,0.9h-1.4l-2.2-0.8l-2.9,0.1l-3,1.1
		l-0.9-1.3l1.3-1.9l-1-1.8l-4.1,1l-1.9,0.9l-1.2,1.1l-1.3-0.1v-2.5l2.6-2.6l-1.6-0.2l1.2-1.9l-1-1l0.1-2.6l-2.3,0.9l-0.5-1.2
		l1.4-2.2l-1.4-0.2l-2.3-2.5l0.8-3.1l2-1l1.9-1.5l2.6,0.3l1.7-0.3l3.6-1.6l-0.4-1.5l0.4-0.7l3.2-1.7l2-0.2l1.9-0.9l1.3,0.5l1.1-0.1
		l1.3,0.6l1.7,1.6l2.5,0.6l2-0.5l3.6-0.1l1.7,0.2l3.2-0.3l1.8,0.1l2.9-0.8l2.3,1l4.4,0.4l2.6,0.8l7.2,1.4h2.7l3.7-0.8l1.6-0.5
		l1.5,0.3l2.1-0.6l2.3,1l4.7,1.3l2.1-1.3l3.4,0.6l3.3,1.3l1.8,0.1l2.6-0.3L234.2,402.7L234.2,402.7z"/>
	<path id="CY" class="st0" d="M698,534.2L698,534.2h-0.2H698L698,534.2z M698,534.2L698,534.2h0.2l0.1,0.1h-0.1L698,534.2L698,534.2
		L698,534.2z M697.6,533.9L697.6,533.9L697.6,533.9L697.6,533.9v-0.2V533.9L697.6,533.9L697.6,533.9z M701.1,533.1l0.2,0.1l0.3,0.3
		l0.2,0.4l0.1,0.3l0.2,0.2l0.2,0.1h-0.2h-0.3l-0.3-0.1l-0.2-0.2h-0.2l-0.7,0.1l-0.6,0.1l-0.1,0.1l-0.1,0.1h-0.3H699l-0.1-0.1
		l0.2-0.1h0.1l-0.1-0.3h-0.2l-0.2-0.1v-0.4l-0.1-0.1l-0.3-0.1v-0.2l0.1-0.1l0.2-0.1l0.1,0.1l0.1,0.1l0.2-0.1l0.1-0.1l0.1-0.1
		l0.1-0.1l0.2,0.2l0.2,0.1h0.1l0.2,0.1h0.1l0.3-0.1h0.2l0.1,0.1h0.2h0.1h0.1L701.1,533.1L701.1,533.1z M697.1,534.2v0.2l-0.3,0.1
		l-0.3,0.3v0.2l-0.1,0.3v0.3v0.3v0.3v0.1h-0.1l-0.1,0.1v0.3l-0.1,0.1h-0.2h-0.4l-0.2,0.1l-0.1,0.1l-0.1,0.2l-0.1,0.1l-0.2,0.1
		l-0.4,0.1l-0.4,0.2l-0.3,0.1l-0.2-0.3l0.1,0.5l-0.4,0.2l-0.9,0.2l-0.2,0.1l-0.1,0.1l-0.2,0.1h-0.2l-0.9-0.1l-1,0.1l-0.1,0.1
		l-0.2,0.1l-0.6,0.5l-0.1,0.3h-0.3l-0.3,0.1v0.1l-0.1-0.1l-0.1-0.2l0.1-0.2l0.1,0.1h0.3l-0.1-0.4l-0.4-0.1l-0.2,0.2l-0.1,0.1
		l-0.2-0.1v0.1l-0.4-0.1l-0.3-0.2l-0.1-0.1v-0.2h-0.1h-0.1h-0.1h-0.1l-0.1,0.1v0.1h-0.2l-0.1,0.2h-0.2h-0.2l-0.1,0.1l0.1,0.2
		l-0.2,0.1h-0.5l-0.6-0.1l-0.5-0.2l-0.7-0.4l-0.3-0.1l-0.3-0.1h-0.5l-0.3-0.1l-0.2-0.2l-0.6-0.4l-0.1-0.1l-0.1-0.4v-0.1l-0.1-0.1
		l-0.4-0.9l-0.1-0.1l-0.3-0.2l-0.2-0.1l-0.1-0.1l-0.1-0.2v-0.2l0.1-0.2l-0.3-0.4l-0.1-0.2v-0.4l-0.1-0.2l-0.3-0.5l-0.2-0.3l-0.1-0.4
		l0.1-0.3h0.1l0.3,0.1l0.4,0.5l0.3,0.1l0.2,0.1h0.6l0.4-0.2l0.3-0.4l0.3-0.4l0.1-0.5l0.1-0.3l0.2-0.1l0.1-0.1v-0.1h0.1l0.1,0.1h0.1
		h0.2l0.1,0.1l0.2,0.2h0.2h0.1l0.2-0.2l0.1-0.2V531l0.4,0.1l0.2,0.4l0.1,0.2l0.1,0.2l0.2,0.1l0.4,0.1l0.3,0.1l0.2,0.2l0.2,0.1
		l0.1,0.2v0.2l0.1,0.1l0.1,0.1h0.1l0.4-0.1l0.1-0.2l0.1-0.2l0.1-0.1l0.1,0.1l0.1,0.1l0.2,0.1h0.2l0.2-0.1l0.2-0.2l0.2-0.2l0.2-0.1
		l0.3-0.2l0.1-0.2h0.2l0.3,0.1h0.3h0.4l0.1-0.1h0.1l0.1-0.2l0.3-0.2h0.2l0.2,0.1l0.1,0.1h0.2h0.1l0.2,0.2l0.2,0.2l0.2,0.1l0.3,0.1
		h0.1l0.1-0.1V532l0.1-0.2l0.3-0.3h0.1h0.2h0.3h0.2h0.1v0.2l0.1,0.2l0.1,0.1l0.2,0.2l0.2,0.2v0.1l0.1,0.3v0.2v0.3v0.4l-0.1,0.3
		l0.1,0.2l0.1,0.1h0.2h0.2V534v-0.4l0.1-0.1l0.1-0.1l0.1-0.1l0.1,0.1l0.1,0.4l0.1,0.2l0.1,0.1l0.3-0.1v-0.2l0.1-0.1h0.2l0.1,0.1h0.2
		l0.1-0.1l0.1,0.1h0.1l0.3,0.2h0.2h0.1L697.1,534.2L697.1,534.2z"/>
	<rect id="_x30_" x="254.7" y="278.7" class="st0" width="0" height="0"/>
	<rect id="_x31_" x="430.2" y="299.9" class="st0" width="0" height="0"/>
	<rect id="_x32_" x="375.8" y="154.5" class="st0" width="0" height="0"/>
	<polygon class="st0" points="376,412 375.7,414.3 376.7,416 377.3,422.5 375.5,425.7 375.6,428.7 374,433 373.2,434.1 369.4,432.1 
		368.2,431 369.2,429.2 367,428.3 367.4,426.6 367.2,425.7 365.6,425.2 366.6,423.9 366.6,423.1 365.1,422.1 364.8,421.2 
		366.1,420.1 365.5,419.2 365.6,417.9 366.5,416 367.7,415.1 370.5,414.3 371.7,413.2 373.6,413.8 374.2,412.6 374,409.9 
		374.3,408.8 375.6,409.3 376,412 	"/>
	<polygon class="st0" points="184.1,239.9 182,240.3 179.1,240.3 179.2,238.8 177.8,238.3 176,235.6 174.7,235.1 172.8,236.7 
		173.3,237.6 170.9,239.4 168,239.1 167.2,238.4 165.1,238 164.9,237 162.2,235 163.2,233.6 166.1,232.7 165.1,231.3 165.3,230.5 
		166.9,230.6 169.1,229.8 170.3,228.2 171.3,225.9 173.2,225 174.5,225.6 176.4,223.6 179.2,223.5 181.9,222.8 185.8,223.1 
		186.9,224.2 187.4,225.9 188.7,227.6 190.4,229 190.4,229.9 188.4,231 191.9,231.3 193.1,233.8 191,234.1 190.9,235.5 192,235.7 
		191.4,237.1 188.8,237.7 187.4,239.9 186.4,240.4 184.1,239.9 	"/>
</g>
<g id="Layer_3">
	<path id="BE" class="st1" d="M324.8,289.7l1.6-0.5l0.8,0.8l1.2,0.1l3,2.3l-0.4,1.5l1.7,0.7l0.4,2l-2.3,1.3l-0.6,1.7l-1.7-0.7
		l-1.3,1.3l-1.4,2.5l-0.2,1.7l2,2.4l-1.1,1.7l-3.4,0.4l-2.8-2.6l-3.3-1.5l-1.7-0.1l-0.4-2l-0.6-0.6l0.8-2.7l-1.9,0.6l-0.5,1.4
		l-1.3,0.6l-2.2,0.3l-2.3-0.3l-0.5-0.6l0.7-1.4l-0.7-0.7l0.4-1.6l-1.6-1.1l-3.6-0.4l-0.9,0.3l-0.6-2l-4.2-1.1l-0.5-2l-1.6-1.8
		l-3.2,1l-2.9-2.4V287l-0.9-2.2l5.1-2.5l4.7-1.7l0.3,1.3l1.2,0.7l1.2-0.6l3.9,1.1l3.2-1.5l0.6-1.2l2.1,0.3l-0.2-0.9l1.4-0.7l1.5,0.8
		l1.5-1l1.1,1.3l2.5-0.8l0.5,1.6l2.6,1.4l1.9-0.4l1.7,1.3l2.6,1.1l-1,2.9l-1.1,1.3L324.8,289.7L324.8,289.7z"/>
	<path id="CH" class="st1" d="M368.9,337l0.8,1.1l2.6,1.3h1.2l0.9,0.7l-1,3l-0.5,1.5l0.1,1.7l1.2,0.1l3.3,0.8l0.4,1l1.5,0.8l2.3,0.4
		l2-1.9l0.8,0.3l0.5,1.5l-0.5,3.1l0.5,1.8l-1.9-0.2l-1-0.9l-1.3,0.3l-0.6,1.8l1.5,3.5l-1.2,0.3l-1.4-1.9l-0.7-0.1l-2.9,1.1l-2-0.8
		l-0.8-2.1l-2,0.1v2.9l-0.5,1.1l-2.2,2.6l-0.2,1l0.7,1.7l-1.2,0.7l-0.9-1.4l-1.3-1.2l0.4-1.2l-2.2-0.6l-2.4-2l-0.2-2.5l-1-0.6
		l-3.4,2.9l0.6,1.5l-1.6,2.2l-2.4,1.4l-3.1-0.8l-2.6,1l-2.4,0.5l-1.4-0.7l-0.9-1.4l-2.3-2.3l0.5-1.7l-0.8-2.2l-2.2-0.3l-1.9,0.1
		l-2.3,1.5l0.5,1.3l-2.3,1.6l-1.4-0.1v-1l1.5-1l0.3-1.5l-0.8-0.7l1.1-2.9l3-2.2l0.5-2.9l2.1-0.9l3.8-4l0.6-0.9l-1.3-1.1l1.8-1.4h1.1
		l0.8,0.8l2.7-0.3l0.8-1.4l1.5-0.7l1,0.3l2.8,0.1l3.3-0.6l2.6,0.2l-0.2-1.5l1.3-1.2h1.3l1.4,1l0.8-0.2l1.1,0.9L368.9,337L368.9,337z
		"/>
	<path id="DE" class="st1" d="M422.7,243.1l-3.4-0.1l-0.2-1.7l-1.1-1l-0.1-1l4.7,2.6L422.7,243.1z M387.9,235h-1.8l-1.4-0.7l0.8-1
		l1.7,0.4L387.9,235L387.9,235z M416.2,235.5l-1.3,0.7h-1.3l-1.3,1.3l-2.1-1.1l-0.5-1.1l0.1-2.2l0.6-1.4l2-0.9l0.9,1.2l1.7,0.6
		l-0.5,1.7L416.2,235.5L416.2,235.5z M369.6,228.9l1.8,0.7l1.6,1.6l0.1,1.4l-1.7,1.6l3.2-0.3l0.8,1.2l1.7-0.4l4.5,1.8l3.2-0.9
		l0.7,1.4l-0.6,1.5l-2.2,1.6l1.4,1.2l2.1-0.2l3.6,0.9l3.3-2.5l1.1-0.5l3.6-0.3l5.1-4.5l5.3,0.9l1.5,1.9l3.7,2.1l3.2-0.2l1.3,2
		l0.8,2.5l1.9,1.3l2.8,0.5l0.7,2.6l1.8,4.1l-0.3,2.7l-1.9,1.8L423,258l1.6,1.4l3.3,2.1l1.4,1.7l-0.6,2.6l2,2.3l0.8,1.9l-0.7,2.6
		l-0.8,1.1l1.9,3.1v1.6l2.2,0.9l1.6,3.2l-0.4,2.3l-1.6,3.6l-0.9,0.7l-1.4-0.6v-0.9l-1.5-1.5l-2.2-0.4l-0.8,0.6l1.5,1.5l-1.9,0.6
		l-3.5,1.5l-4.4,1l-0.6,1.2l-1.1-0.1l-1.6,0.7l-0.6,1l-2,0.3l-0.8,1.3l-2.1-0.4l-2.6,0.6l-1.1,0.6l-1.9,2.6l-1.9-2l-0.5,0.7l2.5,3.4
		l2.3,1.3l0.6,1.6l-1.2,1.7l1.4,1.5l1.8,2.7l2.3,2h1.3l2.9,2.6l2.5,1.5l1.3,1.6h1.3l2.9,2.2l0.6,0.7l-0.2,2.8l-1.3,0.9l-2.3-0.9
		l-0.7,2.9l-1,1l-2.9,0.8l-3.1,1.8l-0.6,1.3l2.5,2.8l0.1,1.3l-0.6,1.3l1.7,0.3l0.3,1.9l-0.3,1.5l-1.7-0.4l-1.2-0.9l-0.2-1.1
		l-1.1-0.5l-2.5,0.5l-1.5-0.8l-2-0.3l-0.1,1.4l-5.7,0.5l-3.9,1.5l-1.1,0.9l-3.8,0.5l-1.4-1.9l-2.7-0.4l-2.8,0.1l-0.2,1.9l-1,1.6
		l-1.6,0.5l0.1-1.3l-1.2-0.3l-0.9-1.4l-3.5-1.6l-0.7,0.5l-2.2-1.2l-5.1-2.3l1,1.6l-3.7,0.2l-1.1-0.9l-0.8,0.2l-1.4-1h-1.3l-1.3,1.2
		l0.2,1.5l-2.6-0.2l-3.3,0.6l-2.8-0.1l-1-0.3l-1.1-1.3v-1.5l0.6-2l-0.2-2.4l0.3-1.5l1-1.8l1.4-5.5l3.5-3.8l-0.1-1.3l-1.6-0.6
		l-4.8-0.8l-2-1.4l-3,0.6l-2.1-0.1l-0.3-0.9l-1.4-0.4l-1.8,0.7l-3.5-4.3l-1.4-0.1l0.6-3l0.9-0.9v-1.4l-2.8-1.1l-1.5-1.6l-0.3-2.2
		l0.6-1.7l2.3-1.3l-0.4-2l-1.7-0.7l0.4-1.5l-3-2.3l0.6-2.4l-1.9-1.2l0.5-0.8l2.2-1.6l-0.7-1.2l1.3-2.8v-1.2l-3.1-4.1l0.7-1.1
		l1.8-0.7l2.3,0.8l4.5-1.3l0.7-1l-1-0.9l0.3-0.9l2.6-1.6l0.6-2.6l-0.8-1l-2.6-0.3l-0.7-1l0.6-1.6l3.1,0.1l1.1-3.8l0.7-1.7l-0.1-4.3
		l-1.7-1.4l0.5-2.7l1.1-1.4l0.9-0.4l4-0.3l4.5,0.1l1.9,2.2l-0.6,1.2l1.6,0.3l0.9-2.4l1.4,0.8l1.1-0.1l-0.5-1.7l0.2-1.6l0.9-1.4
		l3.3,0.6l3.6-0.3l0.1-0.6l-2.8-0.5l-0.9-1.1l-0.2-3.9l-1.5-0.8l-1.6,0.3v-1.5l3.4-1.1v-1l-3.4-3.8l-0.2-1.6l2.7,0.1l5.2,1.3
		l3.1-0.7L369.6,228.9L369.6,228.9z"/>
	<path id="GB" class="st1" d="M243.9,291l-1.6,1.3l-1.3,0.2l-2.5-1.2v-0.5l2.5-1.1l2,0.6L243.9,291z M207.4,251.3l1.3,0.9l-3.4,1.9
		l-1.2-0.6l-0.9-1.2l-0.1-1.9l1.2-0.5h1.8L207.4,251.3L207.4,251.3z M197.8,219.7l-2.6-0.5l-0.6-2l0.9-1.4l1.8,0.7l0.6,1.3
		L197.8,219.7L197.8,219.7z M186.3,212.6l0.7,3.4l-2.4,1.3l-0.8-2.4l-1.4,1l0.2-1.9l1.5-0.3L186.3,212.6L186.3,212.6z M188,214.3
		l-1.1-1.2l1.6-2.2l1.7-1l-0.1,1.6L188,214.3L188,214.3z M190.5,206.5l-4.6,0.8l0.6-3l-1.9-0.9l0.3-0.9l2.1-0.5l1.7,1.7l2.1,0.6
		L190.5,206.5L190.5,206.5z M174.3,195.1l-1.5-0.2l-0.4-1.4l0.2-2.3l1.6,0.2L174.3,195.1L174.3,195.1z M187.1,189.4l-0.1,2.8
		l2.9,0.8l2-0.1l0.4,0.6l-3.3,2.7l-0.7-0.1l-0.2-2.2l-1.4,0.3l-1.9-0.3l-1.2-1.9l-2.7-0.5l-0.9-1.1l1.4-0.6l0.3-1.2l2.8-0.6l1.5-0.7
		l0.9,1L187.1,189.4L187.1,189.4z M175.2,186.8l1.2,0.9l-1.1,1.3h-1.5l-2.2-1l0.2-0.5L175.2,186.8L175.2,186.8z M187,176.9l-1.6,2.6
		l-1,0.7l-0.2,1.7l-3,1.6l-3.2,2.4l-1.4-1l2.6-1.7l-2.1-1l-0.2-2.6l0.8-0.7l1.4,0.7l1.9-0.3l-0.7-1.2l6.3-3.2L187,176.9L187,176.9z
		 M221.8,174.7v1.2l-1.3,1.6l-2.2,1.2l-4.2,2.8l-2.5,1.3l-0.5,1.6l1.4,0.1l0.2,0.8l-2.2,1.6l-0.6,1.5l3-0.4l5.3-1.5l3.6,0.5l2.6-0.3
		l6.9,0.2l1.9-0.3l2.3,1.3l1,1.7l-2.8,3.4l-0.8,2.3l-2,3.5l-1.9,2l-2,2.5l-2.1,1.1l-3.1,0.5l4.5,1.9l-1.4,1.8l-2.4,0.1l-2.3,1.7
		l-2.1,0.7l3.6,1.1l2.4-1l2.7-0.1l5.2,1.9l3.6,3.4l2,1.5l0.5,1.1l2.1,6.9l1.5,3.8l1.6,1.8l4.5,1.6l1.1,0.6l3.4,3.3l3.4,2.4l-1.4,1.5
		l0.4,1.2l2.1,2.9l0.3,1.6l-1.3-0.1l-2.3-1.4l-0.3,0.7l5,3.3l1.6,2l1,2.7l-0.6,1.1l-3,2.7l2.8,1.4l1.2-0.2l2-2.1l1.7-0.2l4.2,0.3
		l3.8,1l3.3,2.1l0.7,1.1l0.4,3.1l-2.2,5.8l-2.8,1.9l-0.5,1.7l-2.1,0.9l-1.7-0.3l-2.4,1.2l1.7,0.6v1.7l-1.1,0.6l-2.5,0.2l1.1,2
		l2.5,0.4l4.3-0.2l1.9,0.2l-0.2,2.7l-0.4,0.4l-3.8,1.7l-1,1.8l-2.2-0.1l-1.1,0.7l-5.7,1.9l-4.9-0.8l-2.9,0.1l-4,0.6l-4.2-1.2
		l-1.8-0.2l-2.8,1.7l-4.2,0.5l-2-0.2l0.9,1.5l-0.9,0.4l-3.8-0.5l-1,0.5l-1.4-0.2l-2.7-1.4l-2.6-0.1l-4.9,1.2l-1,1.3l-1.3,3.5
		l-1.1,1.2l-1.4,0.2l-4.5-2.5l-1.5,0.5l-2.5,0.3l-2.7,0.7l-3.9,2.4l-0.9,1.5l-1.3,0.2l-1.1-0.9l-1.4-0.3l-2.3,0.8l-0.3-1.3l1-1
		l2.8-0.7l2.5-1.9l2.2-2.3l4.6-3.8l0.8-3.1l2.7-0.7l1.4-2.5l4.1-0.6h2.8l2.8,0.5l2.9-0.1l1.1-0.7l1.9-2.4l3.6-3l-4.7,1l-3.8,2.3
		l-3.2-0.4l-2.3-1.9l-2.1-0.8l-2.1,0.4l-0.7-0.9l-2.4-1.7H202l-3.6,1.7l-2.6-1.2l-0.9-2.3l0.3-1.4l1.1-0.7l2.5-0.6l3.8-1.7l2.2-0.7
		l2.8-1.9l1.2-2.3l-0.3-2l0.5-1.4l-0.9-1.7l0.3-1.5l-3,0.3l-2.7,1.2l-0.7-1.1l2.8-1.8l1-1.4l2.6-1.7l3.6-1.3l1.9,0.1l3.7-0.7
		l2.7,1.3l-0.8-2.1l1.2-0.4l0.1-2.4l1.6-2.2l-1.2-0.6l0.1-2l1.5-0.8l0.7-2.6l-1.7-0.5l-2.1,0.6l-1.7-1.5l-2.8-3.6l-0.3-1.4l1.6-3.1
		l2.3-2l-1.9-0.8l-1.4,0.2l-2.7,1.2l-2,1.3h-2.1l-0.8-0.9l-1.1,0.1l-2.5,1.1l-3.5-1.3l-1.1,2.3l-2.6-2.5l-0.3-1.9h1.3l1.2-2.4l2.9-4
		l0.6-1.2l-0.5-1.4l-1.9-1.5l0.3-2.6l0.8-1l1.5-0.4l-1.9-1.2l-2.9,0.9l-1.8,0.9l0.3-2l-0.6-0.4l-1.5,1.4l0.1,3.3l-2.1,5.7l-1.1,0.9
		l-1.4-0.5l1.1-3.9l1.4-2.5l-0.6-0.3l0.3-3.6l1-2.9l1.7-3.8l2.2-3.5l-4.1,2.7l-1,0.5l-2.4-0.4l-0.8-0.7l-1-2.3l1.8-0.2l1.7-1.1
		l-1.5-0.7l1.5-0.9l1.7-2.1l0.4-1.9l-1-1.5l-1.6-0.6l-0.2-0.9l1.7-1.9l-0.7-1.5l1.6-3.1l3,0.1l1.9-0.4l-2.3-2l0.7-2.9l3.7-0.3
		l-0.8-1.8l0.3-2l1.6-0.9l1.3,0.2l1,0.9l2.6-0.9l0.6,0.8l2.8-0.6l3.7-0.3l4.5-0.6l2.2-0.4l2.3,0.2L221.8,174.7L221.8,174.7z
		 M221.2,170.7l-1.3,0.1l-1.3-1.4l1.5-0.3L221.2,170.7L221.2,170.7z M222.5,167.3l2.7,0.6l-0.6,1.4l-1.4-0.7l-2,0.3l-1.9-1l0.4-2.1
		l1.7-0.1l1.2,0.5L222.5,167.3L222.5,167.3z M226.2,165l-1,0.3l-0.4-1.2l-1.7-0.6l0.4-0.8L226.2,165L226.2,165z M242.3,145.5
		l1.6,1.8l1,0.5l-1.3,3.8l-0.2,1.6l-1,1.7l-0.8-0.4l0.9-2.9l-0.5-1.1l-1.7,0.3l-0.4-0.9l1.6-1.4l-0.8-2l-1.1-0.2l1.5-1.6
		L242.3,145.5L242.3,145.5z M245.2,145.9l-1.4-1.3l1.3-0.6L245.2,145.9z"/>
	<path id="NL" class="st1" d="M307,280.4l-0.6,1.2l-3.2,1.5l-3.9-1.1l-1.2,0.6l-1.2-0.7l-0.3-1.3l2.8-0.4l3.5,0.7l1.5-0.6l1.2,0.5
		L307,280.4L307,280.4z M303.6,275.1l1.5,1.4l-1.5,0.3l-1.6-1L303.6,275.1L303.6,275.1z M321.7,266.6l-3-0.4l-0.9-0.7l2.4-1.7
		l3.2-1.5l1.7,0.4l0.5,0.9l-1.1,1.1L321.7,266.6L321.7,266.6z M314.1,255.1l-1.1,1.1l-0.6-1.4l1.7-1.4V255.1L314.1,255.1z
		 M307,280.4l-2.6-0.8l-2.2,0.5l-2.8-0.7l-1.7-1.3l1.2-0.7l2.3-0.1l4,0.7l1.2-0.9l-0.6-1l-2.3-2.1l1.6-2.7l1.4-1l3.2-3.8l0.9-2
		l1.2-5.5l1-2l1.4,0.5l2-0.8l3.4-2l1-1.7l1-0.9l4-1.6l2.1-0.4l8.9-0.5l1.8,1.7l2.7,0.6l0.1,4.3l-0.7,1.7l-1.1,3.8l-3.1-0.1l-0.6,1.6
		l0.7,1l2.6,0.3l0.8,1l-0.6,2.6l-2.6,1.6l-0.3,0.9l1,0.9l-0.7,1l-4.5,1.3l-2.3-0.8l-1.8,0.7l-0.7,1.1l3.1,4.1v1.2l-1.3,2.8l0.7,1.2
		l-2.2,1.6l-0.5,0.8l1.9,1.2l-0.6,2.4l-1.2-0.1l-2.4-0.3l-0.7-1.1l1.1-1.3l1-2.9l-2.6-1.1l-1.7-1.3l-1.9,0.4l-2.6-1.4l-0.5-1.6
		l-2.5,0.8l-1.1-1.3l-1.5,1l-1.5-0.8l-1.4,0.7l0.2,0.9L307,280.4L307,280.4z M325.1,264.8l0.9-0.9l-0.5-1.9l-2.1-0.3l-0.5-0.8
		l0.4-2.5l-2.8-0.4l-0.4-2.5l-1.5,0.3l-2.3,1.5l0.6,1.3l1.6,1.6v0.9l-2.1,0.7l0.1,2.6l-0.2,1.6l5.4,1.4L325.1,264.8L325.1,264.8z"/>
	<path id="FR" class="st1" d="M242.1,364.1l-0.4,1.4l-1.9-2.4l1-0.5L242.1,364.1z M326.5,308.5l2.1,1.2h1.4l2-0.6l1.3,0.7l1.4,0.1
		l3.5,4.3l1.8-0.7l1.4,0.4l0.3,0.9l2.1,0.1l3-0.6l2,1.4l4.8,0.8l1.6,0.6l0.1,1.3l-3.5,3.8l-1.4,5.5l-1,1.8l-0.3,1.5l0.2,2.4l-0.6,2
		v1.5l1.1,1.3l-1.5,0.7l-0.8,1.4l-2.7,0.3l-0.8-0.8h-1.1l-1.8,1.4l1.3,1.1l-0.6,0.9l-3.8,4l-2.1,0.9l-0.5,2.9l-3,2.2l-1.1,2.9
		l0.8,0.7l-0.3,1.5l-1.5,1v1l1.4,0.1l2.3-1.6l-0.5-1.3l2.3-1.5l1.9-0.1l2.2,0.3l0.8,2.2l-0.5,1.7l2.3,2.3l0.9,1.4l-2.6,1.7l0.1,1.6
		l0.9,0.6l1.7,2.6l1.8,1.6l-0.8,2.5l-1.2,0.3l-1.7,1.3l-1.9-0.2l-0.8,0.4l1.5,3.1l3.2,1.4l0.5,1.7l-0.8,0.7l-1.4,2.5l0.7,1.3
		l0.1,1.4l0.9,0.9l5.1,2.4l3.3-0.6l0.3,2l-2.1,2.6l0.2,1.5l-0.6,0.3l-0.8,0.3l-2.4,1.1l-3.9,3.4l-1.8,1l-0.7,1.8l-2,1.4l-2.4,0.5
		l-2.3,1l-1.1-0.4h-2.8l-1.7-1.2l-3.4-0.8l-1.1-1.8l-2.5-0.1l-0.8-1.5l-1.9,0.3l-1.5,0.7l-2-0.1l-5.9-1.8l-1.4-1.4l-1.7,0.5
		l-1.6,1.6l-6.5,4.1l-2.6,4.3l-0.1,1.2l0.7,3.9l1.6,2.5l-3.1-0.6l-3.8,1.1l-1.2,0.8l-4.7-1.2l-2.1,1.1l-1.3-1.2l-2.8-1.2v-1.5
		l-2.6-0.6l-0.9,0.7l-1.1-1.5l-1.7-0.3l-2.5-1l-4-1.1l-0.8,2.4h-4.7l-0.7-0.4l-3.1,0.4l-3.2-2.1l-3.6,0.4l-2.2-2.1l-2.2-0.2
		l-4.4-1.7l-1.8,0.4l0.3-3.2l-4.3-1.3l-0.5-1.3l2-0.5l1.9-1.9l1.7-7.1l1.3-8.3l1-1.6l1.2-0.4l-1-1.2l-1.1,1.5l0.7-7.6l0.5-2.8l0.9-3
		l3.1,2.4l0.8,1l0.9,3.4l0.6,0.1l-1.1-4.6l-1.8-2.3l-3.6-2.3l-0.5-1.3l1.8-0.6l-0.5-1.8l-0.5-5.9l-3-0.6l-4.8-2.6l-1.7-2.6l-1.6-1.9
		l-0.4-1.7l0.9-1.8l-0.8-1.1l-1.4-0.8l1.1-1.6l-3-0.2l-1.8-0.5l-0.3-1.1l1.3-1.4l-1.6-0.8l-2.6,0.2l-0.2-1.7l-2.2,0.3l-1.2-0.3
		l-1.1-1.1l-1.3,0.2l-2.2-0.4l-0.8-0.7l-4.8-1.3l-2-0.1l-1.9,0.6l-1.1-0.3l-1.3-2.2l-3.1-1.1l0.6-0.7l3.1-0.6l0.6-0.7l-2.2-0.9
		l-0.2-1.2l1.6,0.3l0.1-1.2l-4,0.1l-0.4-1.3l0.5-1.4l2.3-1.2l5.8-1.4l2.5,0.2l1.7-0.2l3-1.6l2.9-0.4l2.7,0.8l2.5,2.8l1.2,1l3.1-1.7
		l4.4,0.1l0.9,0.9l1.2-1.7l1,1l4.7-0.2l-1.5-2.5l-0.2-6l-1.3-1.7l-2.1-4.3l0.2-1.4l3.2,0.3l2.7-0.6l1.3,0.4l0.3,2.8l1.1,1.6h2.2
		l2.3,0.5l3,0.1l4.3,0.8l1.8-0.5l3.5-2l-1.8-0.7l-0.2-0.7l0.9-2.2l5.2-2.5l3.7-0.7l3.8-1.3l2-1.4l1.2-1.8l0.5-1.3l0.3-6.8l1-2.2
		l2.9-1.6l6.4-1.1l0.9-0.5l0.9,2.2v1.2l2.9,2.4l3.2-1l1.6,1.8l0.5,2l4.2,1.1l0.6,2l0.9-0.3l3.6,0.4l1.6,1.1l-0.4,1.6l0.7,0.7
		l-0.7,1.4l0.5,0.6l2.3,0.3l2.2-0.3l1.3-0.6l0.5-1.4l1.9-0.6l-0.8,2.7l0.6,0.6l0.4,2l1.7,0.1l3.3,1.5l2.8,2.6L326.5,308.5
		L326.5,308.5z"/>
</g>
<g id="Layer_2">
	<g>
		<circle class="st2" cx="230.8" cy="280.2" r="9"/>
		<g>
			<path class="st3" d="M229.1,284.3v-0.9c0.2,0,0.4,0,0.5-0.1c0.1,0,0.3-0.2,0.3-0.3c0.1-0.2,0.1-0.4,0.1-0.8v-5.6l-1.5,0.9
				l-0.5-0.8l3.2-2.3h0.8v7.7c0,0.3,0,0.5,0,0.7c0,0.2,0,0.4,0,0.5c0.1,0,0.3,0,0.6,0c0.2,0,0.4,0,0.5,0v1.1H229.1z"/>
		</g>
	</g>
	<g>
		<circle class="st2" cx="251.5" cy="276.8" r="9"/>
		<g>
			<path class="st3" d="M248.3,280.9c0-0.5,0.1-0.9,0.2-1.3s0.3-0.7,0.5-1c0.2-0.3,0.4-0.6,0.7-0.9c0.3-0.3,0.5-0.5,0.8-0.8
				c0.7-0.6,1.2-1.2,1.4-1.7c0.3-0.5,0.4-1,0.4-1.5c0-0.3,0-0.6-0.1-0.9c-0.1-0.3-0.2-0.5-0.4-0.7c-0.2-0.2-0.5-0.3-0.8-0.3
				c-0.3,0-0.5,0.1-0.7,0.2c-0.2,0.1-0.4,0.3-0.5,0.4c0.1,0.1,0.2,0.2,0.2,0.4s0.1,0.3,0.1,0.4s0,0.2-0.1,0.4
				c-0.1,0.1-0.2,0.3-0.3,0.4c-0.1,0.1-0.3,0.2-0.6,0.2c-0.3,0-0.5-0.1-0.7-0.3c-0.2-0.2-0.2-0.4-0.2-0.7c0-0.2,0.1-0.4,0.2-0.7
				s0.3-0.5,0.6-0.7c0.3-0.2,0.6-0.4,1-0.6c0.4-0.1,0.8-0.2,1.3-0.2c0.4,0,0.7,0,1.1,0.1c0.4,0.1,0.7,0.2,1,0.4
				c0.3,0.2,0.6,0.5,0.7,0.8s0.3,0.8,0.3,1.2c0,0.2,0,0.5-0.1,0.7c-0.1,0.3-0.2,0.5-0.5,0.8c-0.2,0.3-0.5,0.7-0.9,1
				c-0.4,0.4-0.9,0.8-1.6,1.4c-0.5,0.4-0.9,0.8-1.1,1.1c-0.2,0.3-0.4,0.6-0.4,0.8l2.7,0.1c0.2,0,0.4,0,0.6,0s0.3-0.1,0.4-0.3
				c0.1-0.1,0.1-0.3,0.1-0.6h0.9l-0.1,2.3H248.3z"/>
		</g>
	</g>
	<g>
		<circle class="st2" cx="252.7" cy="317.9" r="9"/>
		<g>
			<path class="st3" d="M252.3,322.2c-0.7,0-1.3-0.1-1.7-0.3c-0.4-0.2-0.8-0.5-1-0.8c-0.2-0.3-0.3-0.6-0.3-1c0-0.3,0.1-0.5,0.3-0.7
				c0.2-0.2,0.4-0.3,0.7-0.3c0.2,0,0.4,0,0.5,0.1c0.1,0.1,0.2,0.2,0.3,0.4c0.1,0.1,0.1,0.3,0.1,0.4c0,0.1,0,0.2-0.1,0.3
				c0,0.1-0.1,0.2-0.2,0.3c0.1,0.2,0.3,0.3,0.5,0.4c0.2,0.1,0.5,0.1,0.7,0.1c0.6,0,1-0.2,1.3-0.5s0.4-0.8,0.4-1.3
				c0-0.3-0.1-0.6-0.2-1c-0.1-0.3-0.3-0.6-0.6-0.8s-0.7-0.3-1.3-0.3c-0.1,0-0.2,0-0.4,0c-0.2,0-0.3,0-0.4,0v-1c0.1,0,0.1,0,0.2,0
				c0.1,0,0.1,0,0.2,0c0.4,0,0.8-0.1,1-0.2c0.3-0.1,0.5-0.4,0.7-0.6c0.2-0.3,0.2-0.6,0.2-0.9c0-0.3,0-0.6-0.1-0.9
				c-0.1-0.2-0.2-0.4-0.4-0.6c-0.2-0.1-0.4-0.2-0.8-0.2c-0.3,0-0.5,0.1-0.7,0.2c-0.2,0.1-0.3,0.3-0.4,0.4c0.1,0.1,0.1,0.2,0.2,0.4
				c0,0.1,0,0.2,0,0.3c0,0.1,0,0.2-0.1,0.4c-0.1,0.1-0.2,0.3-0.3,0.4c-0.1,0.1-0.3,0.1-0.6,0.1c-0.3,0-0.5-0.1-0.7-0.3
				c-0.1-0.2-0.2-0.4-0.2-0.7c0-0.3,0.1-0.6,0.3-0.9c0.2-0.3,0.5-0.6,1-0.9c0.4-0.2,1-0.4,1.6-0.4c0.6,0,1.1,0.1,1.6,0.2
				s0.8,0.4,1.1,0.8c0.3,0.4,0.4,0.8,0.4,1.5c0,0.2-0.1,0.5-0.2,0.8c-0.1,0.3-0.4,0.6-0.7,0.8s-0.7,0.4-1.2,0.6c0.9,0.2,1.6,0.5,2,1
				c0.4,0.5,0.6,1,0.6,1.6c0,0.6-0.2,1.2-0.5,1.6c-0.3,0.4-0.8,0.8-1.3,1C253.7,322.1,253.1,322.2,252.3,322.2z"/>
		</g>
	</g>
	<g>
		<circle class="st2" cx="327" cy="286.3" r="9"/>
		<g>
			<path class="st3" d="M329,288c0,0.3,0,0.5,0,0.7s0,0.4,0,0.5c0.2,0,0.4,0,0.6,0c0.2,0,0.4,0,0.5,0v1.1h-4v-0.9h0.1
				c0.2,0,0.4,0,0.6-0.1c0.2,0,0.3-0.2,0.4-0.3c0.1-0.2,0.1-0.4,0.1-0.8v-0.4h-3.8v-1.3l4.8-6.2h0.9v6.2h1.4v1.3H329V288z
				 M327.1,283.2l-2.5,3.2l2.5,0L327.1,283.2L327.1,283.2z"/>
		</g>
	</g>
	<g>
		<circle class="st2" cx="340.2" cy="352" r="9"/>
		<g>
			<path class="st3" d="M339.9,356.3c-0.6,0-1.1-0.1-1.6-0.3c-0.4-0.2-0.8-0.4-1-0.7c-0.2-0.3-0.3-0.6-0.3-0.9
				c0-0.3,0.1-0.5,0.3-0.7s0.4-0.3,0.7-0.3c0.2,0,0.4,0,0.5,0.1c0.1,0.1,0.2,0.2,0.3,0.4c0.1,0.1,0.1,0.3,0.1,0.4c0,0.1,0,0.2,0,0.3
				c0,0.1-0.1,0.2-0.1,0.3c0,0.1,0.1,0.2,0.3,0.3c0.1,0.1,0.3,0.1,0.4,0.2c0.2,0,0.3,0.1,0.4,0.1c0.4,0,0.7-0.1,0.9-0.3
				c0.2-0.2,0.4-0.4,0.5-0.8c0.1-0.3,0.2-0.6,0.2-0.9c0-0.2,0-0.5,0-0.7c0-0.3-0.1-0.5-0.2-0.8c-0.1-0.3-0.3-0.5-0.5-0.6
				c-0.2-0.2-0.5-0.3-0.9-0.3c-0.1,0-0.3,0-0.5,0c-0.2,0-0.4,0.1-0.6,0.2c-0.2,0.1-0.4,0.2-0.6,0.3l-0.6-0.5l-0.1-4.7h3.6
				c0.3,0,0.6-0.1,0.8-0.2s0.3-0.4,0.3-0.7h0.9l-0.1,2.3l-4.4,0.1v2.5c0.2-0.1,0.5-0.2,0.8-0.2s0.6-0.1,0.9-0.1
				c0.6,0,1.1,0.1,1.5,0.3c0.4,0.2,0.8,0.4,1.1,0.7c0.3,0.3,0.5,0.6,0.6,1c0.1,0.4,0.2,0.8,0.2,1.2c0,0.7-0.2,1.3-0.5,1.8
				c-0.4,0.5-0.8,0.9-1.4,1.1C341.1,356.2,340.5,356.3,339.9,356.3z"/>
		</g>
	</g>
	<g>
		<circle class="st2" cx="328.5" cy="370.4" r="9"/>
		<g>
			<path class="st3" d="M328.5,374.6c-0.8,0-1.5-0.2-2-0.6c-0.5-0.4-0.8-0.9-1.1-1.6c-0.2-0.7-0.3-1.5-0.3-2.5c0-0.3,0-0.7,0.1-1.2
				c0.1-0.5,0.2-0.9,0.3-1.4c0.2-0.5,0.4-1,0.7-1.4c0.3-0.4,0.7-0.8,1.1-1.1c0.4-0.3,1-0.4,1.6-0.4c0.6,0,1.1,0.1,1.4,0.3
				c0.4,0.2,0.7,0.4,0.8,0.7c0.2,0.3,0.3,0.6,0.3,0.9c0,0.3-0.1,0.5-0.2,0.7c-0.1,0.2-0.4,0.3-0.7,0.3c-0.3,0-0.6-0.1-0.7-0.3
				c-0.1-0.2-0.2-0.4-0.2-0.6c0-0.1,0-0.2,0-0.3c0-0.1,0.1-0.2,0.2-0.3c-0.1-0.1-0.2-0.2-0.4-0.3c-0.2-0.1-0.4-0.1-0.6-0.1
				c-0.3,0-0.5,0.1-0.7,0.3c-0.2,0.2-0.4,0.4-0.5,0.6s-0.2,0.5-0.3,0.8c-0.1,0.3-0.1,0.6-0.2,1c0,0.3-0.1,0.6-0.1,0.9
				c0.1-0.1,0.2-0.2,0.4-0.4c0.2-0.1,0.4-0.2,0.7-0.3c0.2-0.1,0.5-0.1,0.7-0.1c0.5,0,1,0,1.3,0.2c0.4,0.2,0.7,0.4,0.9,0.7
				s0.4,0.6,0.5,1c0.1,0.4,0.2,0.8,0.2,1.3c0,0.6-0.1,1.1-0.4,1.6s-0.7,0.9-1.2,1.2S329.2,374.6,328.5,374.6z M328.6,373.7
				c0.3,0,0.6-0.1,0.8-0.3c0.2-0.2,0.3-0.4,0.4-0.7s0.1-0.6,0.1-0.9c0-0.2,0-0.5,0-0.7s-0.1-0.5-0.2-0.8c-0.1-0.3-0.2-0.5-0.4-0.7
				c-0.2-0.2-0.4-0.3-0.7-0.3c-0.2,0-0.4,0-0.6,0.1c-0.2,0.1-0.3,0.2-0.5,0.3c-0.1,0.1-0.3,0.3-0.3,0.5c0,0.3,0,0.7,0.1,1.1
				c0,0.4,0.1,0.8,0.2,1.1c0.1,0.4,0.3,0.7,0.4,0.9C328.1,373.5,328.3,373.7,328.6,373.7z"/>
		</g>
	</g>
</g>
</svg>
