<svg id="Layer_1" data-name="Layer 1" xmlns="http://www.w3.org/2000/svg" viewBox="0 0 288 120"><rect width="288" height="120" fill="#fff"/><polygon points="0 41.85 33.82 16.34 69.88 41.85 118.57 17.65 158.81 48.26 228.32 9.81 267.53 40.29 309.91 15.55 329.53 32.24 329.53 89.9 0 89.9 0 41.85" fill="#e6f5ff"/><polygon points="0 66.56 64.35 16.6 107.25 52.83 174.89 5.81 236.48 47.66 265.69 28.57 296.22 47.66 312.8 37.27 329.53 53.52 329.53 89.9 0 89.9 0 66.56" fill="#c0deff"/><rect y="90" width="288" height="30" fill="#427ef5"/><polygon points="47.15 78.1 44.06 78.1 44.06 90.9 27.83 90.9 27.83 78.1 24.75 78.1 35.95 68.92 47.15 78.1" fill="#427ef5"/><polygon points="75.2 78.1 72.11 78.1 72.11 90.9 55.87 90.9 55.87 78.1 52.8 78.1 64 68.92 75.2 78.1" fill="#427ef5"/><polygon points="121.86 78.1 118.77 78.1 118.77 90.9 102.53 90.9 102.53 78.1 99.46 78.1 110.66 68.92 121.86 78.1" fill="#427ef5"/><path d="M89.59,80.93c-.34,3.17-.3,7.49,1.78,10.74H83.65c2.62-4.11,2-9.92,1.44-13a4.09,4.09,0,0,1-2.16.61,4.21,4.21,0,0,1-.8-8.35,4.85,4.85,0,0,1-.1-1,5.13,5.13,0,0,1,10.25-.3A5.85,5.85,0,0,1,90.08,81,3.91,3.91,0,0,1,89.59,80.93Z" fill="#427ef5"/><polygon points="281.88 78.1 278.79 78.1 278.79 90.9 262.55 90.9 262.55 78.1 259.48 78.1 270.68 68.92 281.88 78.1" fill="#427ef5"/><path d="M249.61,80.93c-.34,3.17-.3,7.49,1.78,10.74h-7.72c2.62-4.11,2-9.92,1.44-13a4.09,4.09,0,0,1-2.16.61,4.21,4.21,0,0,1-.8-8.35,4.85,4.85,0,0,1-.1-1,5.13,5.13,0,0,1,10.25-.3A5.85,5.85,0,0,1,250.1,81,3.91,3.91,0,0,1,249.61,80.93Z" fill="#427ef5"/><rect x="149.66" y="48.21" width="22.06" height="42.7" fill="#427ef5"/><rect x="174.01" y="72.9" width="36.22" height="18" fill="#427ef5"/><rect x="212.52" y="67.01" width="20.97" height="23.89" fill="#427ef5"/></svg>