<svg id="Layer_1" data-name="Layer 1" xmlns="http://www.w3.org/2000/svg" viewBox="0 0 288 120"><rect width="288" height="120" fill="#fff"/><polygon points="0 48 29.56 25.7 61.07 48 103.63 26.85 138.8 53.6 199.55 20 233.82 46.64 270.85 25.01 288 39.6 288 90 0 90 0 48" fill="#e6f5ff"/><polygon points="0 69.6 56.24 25.93 93.74 57.6 152.85 16.5 206.68 53.08 232.21 36.4 258.89 53.08 273.38 44 288 58.2 288 90 0 90 0 69.6" fill="#c0deff"/><rect y="90" width="288" height="30" fill="#427ef5"/><polygon points="41.21 78.81 38.51 78.81 38.51 90 24.32 90 24.32 78.81 21.63 78.81 31.42 70.78 41.21 78.81" fill="#427ef5"/><polygon points="65.72 78.81 63.02 78.81 63.02 90 48.83 90 48.83 78.81 46.14 78.81 55.93 70.78 65.72 78.81" fill="#427ef5"/><polygon points="106.5 78.81 103.8 78.81 103.8 90 89.61 90 89.61 78.81 86.92 78.81 96.71 70.78 106.5 78.81" fill="#427ef5"/><path d="M78.3,81.28c-.3,2.77-.26,6.55,1.56,9.39H73.11c2.29-3.59,1.76-8.67,1.26-11.32a3.58,3.58,0,0,1-1.89.53,3.68,3.68,0,0,1-.7-7.29,4.38,4.38,0,0,1-.09-.88,4.48,4.48,0,0,1,9-.26,5.12,5.12,0,0,1-1.92,9.86A3,3,0,0,1,78.3,81.28Z" fill="#427ef5"/><polygon points="246.36 78.81 243.66 78.81 243.66 90 229.47 90 229.47 78.81 226.78 78.81 236.57 70.78 246.36 78.81" fill="#427ef5"/><polygon points="285.79 78.81 283.09 78.81 283.09 90 268.9 90 268.9 78.81 266.21 78.81 276 70.78 285.79 78.81" fill="#427ef5"/><path d="M218.15,81.28c-.3,2.77-.26,6.55,1.56,9.39H213c2.29-3.59,1.76-8.67,1.26-11.32a3.58,3.58,0,0,1-1.89.53,3.68,3.68,0,0,1-.7-7.29,4.38,4.38,0,0,1-.09-.88,4.48,4.48,0,0,1,9-.26,5.12,5.12,0,0,1-1.92,9.86A3,3,0,0,1,218.15,81.28Z" fill="#427ef5"/><rect x="130.8" y="52.68" width="19.28" height="37.32" fill="#427ef5"/><rect x="152.08" y="74.27" width="31.66" height="15.73" fill="#427ef5"/><rect x="185.74" y="69.12" width="18.33" height="20.88" fill="#427ef5"/></svg>