<?xml version="1.0" encoding="utf-8"?>
<!-- Generator: Adobe Illustrator 25.2.3, SVG Export Plug-In . SVG Version: 6.00 Build 0)  -->
<svg version="1.1" id="Layer_1" xmlns="http://www.w3.org/2000/svg" xmlns:xlink="http://www.w3.org/1999/xlink" x="0px" y="0px"
	 viewBox="0 0 305 260.4" style="enable-background:new 0 0 305 260.4;" xml:space="preserve">
<style type="text/css">
	.st0{fill:#FFFFFF;}
</style>
<g>
	<path class="st0" d="M134.6,260.4H0L83.4,51.9H7.5L28.4,0H163L79.6,208.4h75.8L134.6,260.4z M11.4,252.6h118l14.6-36.4H68.2
		L151.6,7.7h-118L19,44.2h75.8L11.4,252.6z"/>
</g>
<g>
	<path class="st0" d="M245.7,260.4h-65.5l-1.1-2.1l-64.3-128.7L231.4,0H305L183.2,135.4L245.7,260.4z M185,252.6h48.2l-59.3-118.5
		L287.6,7.7h-52.7L124.1,130.8L185,252.6z"/>
</g>
<g>
	<polygon points="149.8,212.3 132,256.5 5.7,256.5 89.1,48 13.3,48 31,3.9 157.3,3.9 73.9,212.3 	"/>
</g>
<g>
	<polygon points="178.5,134.7 239.4,256.5 182.6,256.5 119.4,130.2 233.1,3.9 296.3,3.9 	"/>
</g>
</svg>
